<?xml version="1.0" encoding="UTF-8" standalone="no" ?>
<!DOCTYPE svg PUBLIC "-//W3C//DTD SVG 1.1//EN" "http://www.w3.org/Graphics/SVG/1.1/DTD/svg11.dtd">
<svg xmlns="http://www.w3.org/2000/svg" xmlns:xlink="http://www.w3.org/1999/xlink" version="1.1" width="1920" height="720" viewBox="0 0 1920 720" xml:space="preserve">
<desc>Created with Fabric.js 5.2.4</desc>
<defs>
</defs>
<g transform="matrix(Infinity NaN NaN Infinity 0 0)" id="c99ac126-6f4d-41fb-a320-dc74cefcfa14"  >
</g>
<g transform="matrix(1 0 0 1 960 360)" id="8918ceb7-8ee2-45f8-8462-2057611281b6"  >
<rect style="stroke: none; stroke-width: 1; stroke-dasharray: none; stroke-linecap: butt; stroke-dashoffset: 0; stroke-linejoin: miter; stroke-miterlimit: 4; fill: rgb(255,255,255); fill-rule: nonzero; opacity: 1; visibility: hidden;" vector-effect="non-scaling-stroke"  x="-960" y="-360" rx="0" ry="0" width="1920" height="720" />
</g>
<g transform="matrix(3.09 0 0 3.09 960 360)"  >
<g style="" vector-effect="non-scaling-stroke"   >
		<g transform="matrix(1 0 0 1 178.75 36.7)"  >
<path style="stroke: none; stroke-width: 1; stroke-dasharray: none; stroke-linecap: butt; stroke-dashoffset: 0; stroke-linejoin: miter; stroke-miterlimit: 4; fill: rgb(0,103,71); fill-rule: nonzero; opacity: 1;" vector-effect="non-scaling-stroke"  transform=" translate(-505.6, -362.45)" d="M 431.8 388.8 L 431.8 388.8 C 444.6 363.6 472.90000000000003 346 505.9 346 C 538.9 346 564.6999999999999 363.6 577.4 388.8 L 583.6 388.8 C 573.8000000000001 358.40000000000003 542.9 336.1 505.8 336.1 C 468.7 336.1 437.4 358.40000000000003 427.6 388.8 L 431.8 388.8 z" stroke-linecap="round" />
</g>
		<g transform="matrix(1 0 0 1 135.7 22.15)"  >
<path style="stroke: none; stroke-width: 1; stroke-dasharray: none; stroke-linecap: butt; stroke-dashoffset: 0; stroke-linejoin: miter; stroke-miterlimit: 4; fill: rgb(0,150,62); fill-rule: nonzero; opacity: 1;" vector-effect="non-scaling-stroke"  transform=" translate(-462.55, -347.9)" d="M 346.5 388.8 L 346.5 388.8 C 366.3 349.7 411.5 322.4 462.6 322.4 C 513.7 322.4 557.6 349.7 577.4 388.79999999999995 L 583.6999999999999 388.79999999999995 C 568.4999999999999 341.59999999999997 520.0999999999999 306.99999999999994 462.49999999999994 306.99999999999994 C 404.99999999999994 306.99999999999994 356.49999999999994 341.59999999999997 341.4 388.79999999999995 L 346.5 388.79999999999995 z" stroke-linecap="round" />
</g>
		<g transform="matrix(1 0 0 1 157.1 -0.05)"  >
<path style="stroke: none; stroke-width: 1; stroke-dasharray: none; stroke-linecap: butt; stroke-dashoffset: 0; stroke-linejoin: miter; stroke-miterlimit: 4; fill: rgb(128,186,39); fill-rule: nonzero; opacity: 1;" vector-effect="non-scaling-stroke"  transform=" translate(-483.95, -325.7)" d="M 346.7 388.8 L 346.7 388.8 C 370 328.40000000000003 423.7 279.6 484.1 279.6 C 544.4 279.6 597.5 328.40000000000003 620.8 388.8 L 626.8 388.8 C 623.4 377.1 619.5 366.5 614.9 356.40000000000003 C 589.6 300.00000000000006 541.4 262.6 484.09999999999997 262.6 C 416.09999999999997 262.6 358.9 315.90000000000003 341.09999999999997 388.8 L 346.7 388.8 z" stroke-linecap="round" />
</g>
		<g transform="matrix(1 0 0 1 183.4 3.59)"  >
<path style="stroke: none; stroke-width: 1; stroke-dasharray: none; stroke-linecap: butt; stroke-dashoffset: 0; stroke-linejoin: miter; stroke-miterlimit: 4; fill: rgb(0,103,71); fill-rule: nonzero; opacity: 1;" vector-effect="non-scaling-stroke"  transform=" translate(-510.25, -329.34)" d="M 508.3 269.9 L 508.3 269.9 C 508.3 269.9 591 265.79999999999995 626.8 388.79999999999995 L 616.6999999999999 388.79999999999995 C 598.0999999999999 331.9 556.4999999999999 292.19999999999993 508.19999999999993 292.19999999999993 C 459.8999999999999 292.19999999999993 418.3999999999999 331.8999999999999 399.69999999999993 388.79999999999995 L 393.69999999999993 388.79999999999995 C 407.99999999999994 320.19999999999993 453.8999999999999 269.9 508.19999999999993 269.9 L 508.3 269.9 z" stroke-linecap="round" />
</g>
		<g transform="matrix(1 0 0 1 -144.25 0)"  >
<path style="stroke: none; stroke-width: 1; stroke-dasharray: none; stroke-linecap: butt; stroke-dashoffset: 0; stroke-linejoin: miter; stroke-miterlimit: 4; fill: rgb(88,88,92); fill-rule: nonzero; opacity: 1;" vector-effect="non-scaling-stroke"  transform=" translate(-182.6, -325.75)" d="M 82.5 323 L 131.3 323 L 131.3 388.9 L 119.30000000000001 388.9 L 113.20000000000002 373.7 C 105.80000000000001 384.9 94.80000000000001 390.7 80.20000000000002 390.7 C 63.000000000000014 390.7 47.80000000000002 384.09999999999997 39.40000000000002 371 C 31.10000000000002 358.1 26.90000000000002 342.8 26.90000000000002 325.8 C 26.90000000000002 307.8 31.50000000000002 292.3 40.90000000000002 279.8 C 50.40000000000002 267.1 65.90000000000002 260.8 82.80000000000001 260.8 C 95.4 260.8 106.00000000000001 264.40000000000003 114.10000000000001 271.8 C 120.4 277.5 124.9 284.3 127.7 292.2 L 128.1 293.5 L 106.8 299.8 L 106.5 298.7 C 102.4 287.4 94.8 281.8 83.3 281.8 C 74.89999999999999 281.8 68.2 285.2 63 292.1 C 57.7 298.90000000000003 55.1 309.70000000000005 55.1 324.1 C 55.1 354.70000000000005 64.2 369.70000000000005 82.9 369.70000000000005 C 90.10000000000001 369.70000000000005 96.10000000000001 367.20000000000005 100.80000000000001 362.20000000000005 C 105.20000000000002 357.40000000000003 107.60000000000001 351.20000000000005 107.9 343.40000000000003 L 82.5 340.00000000000006 L 82.5 340.00000000000006 L 82.5 323 z M 177.1 262.5 L 177.1 262.5 L 151.2 262.5 L 151.2 388.8 L 225.5 388.8 L 229.6 366 L 177.1 366 L 177.1 262.5 z M 327.5 273.9 C 334.6 281.29999999999995 338.3 290.29999999999995 338.3 300.5 C 338.3 312.2 334.40000000000003 321.7 326.6 328.9 C 318.90000000000003 336.09999999999997 309 339.7 297.20000000000005 339.7 L 271.90000000000003 339.7 L 271.90000000000003 388.8 L 245.70000000000005 388.8 L 245.70000000000005 262.5 L 294.70000000000005 262.5 C 309.3 262.5 320.3 266.3 327.5 273.9 L 327.5 273.9 M 271.9 318.1 L 292.7 318.1 C 299.2 318.1 304.2 316.5 307.59999999999997 313.3 C 310.99999999999994 310.1 312.59999999999997 306.1 312.59999999999997 300.8 C 312.59999999999997 296 311.09999999999997 292 307.99999999999994 288.6 C 304.8999999999999 285.20000000000005 299.09999999999997 283.5 290.8999999999999 283.5 L 271.99999999999994 283.5 L 271.99999999999994 283.5 L 271.99999999999994 318.1 z" stroke-linecap="round" />
</g>
</g>
</g>
</svg>