<svg width="1080" height="1080" viewBox="0 0 1080 1080" fill="none" xmlns="http://www.w3.org/2000/svg">
<g clip-path="url(#clip0_10_2864)">
<path d="M286.004 24.2798C253.695 22.7504 200.738 32.9375 161.656 53.6395C161.656 53.6395 151.196 34.7401 130.931 41.1309C107.552 47.6857 109.3 85.0476 109.3 85.0476C109.3 85.0476 53.3117 128.527 98.3754 151.278C98.3754 151.278 95.6443 179.49 89.0349 198.171C89.0349 198.171 59.4567 222.069 75.1608 243.918C75.1608 243.918 70.3813 262.134 47.6309 317.658L43.4523 327.818C43.0699 328.719 42.5783 329.566 41.9775 330.358C38.2085 335.329 24.4709 356.195 45.5826 372.745C65.8203 383.615 79.5306 370.67 87.0139 358.134C87.3416 357.615 87.6147 357.041 87.8605 356.468C116.674 290.074 125.496 261.206 125.496 261.206L192.927 260.332C194.539 260.332 196.123 260.523 197.679 260.987C204.398 263.036 225.837 267.651 234.113 245.638C243.208 218.791 216.961 208.932 202.104 209.232L160.372 209.096L250.5 139.588C250.5 139.588 294.034 105.449 309.055 84.2009C324.076 62.9527 318.314 25.782 286.004 24.2798ZM151.988 149.557L156.876 116.456C198.417 89.2535 237.117 81.9887 237.117 81.9887C214.012 104.166 151.988 149.584 151.988 149.584V149.557Z" fill="white"/>
<path d="M430.127 137.158C430.127 137.158 412.483 110.311 364.17 128.363C364.17 128.363 347.619 133.634 319.761 159.58C319.761 159.58 294.034 163.349 276.172 204.07C258.229 244.983 259.485 288.271 291.194 303.593C311.349 312.496 331.505 315.364 353.682 303.074C371.271 293.324 385.39 278.548 393.83 268.771C412.429 248.233 425.156 228.651 431.41 207.102C431.41 207.102 444.492 158.324 430.154 137.158H430.127ZM369.605 215.596C369.605 215.596 344.423 251.401 326.371 258.229C326.371 258.229 322.793 259.376 317.768 258.01C315.692 242.142 321.673 226.438 329.348 216.197C329.348 216.197 333.444 210.352 338.306 208.304C343.167 206.255 356.222 201.694 359.691 196.396C364.634 187.82 383.424 177.059 383.424 177.059C383.424 177.059 385.09 191.48 369.605 215.596Z" fill="white"/>
<path d="M722.221 136.693C736.294 136.693 747.703 125.285 747.703 111.212C747.703 97.1388 736.294 85.7303 722.221 85.7303C708.148 85.7303 696.74 97.1388 696.74 111.212C696.74 125.285 708.148 136.693 722.221 136.693Z" fill="white"/>
<path d="M696.74 752.127C710.813 752.127 722.221 740.719 722.221 726.646C722.221 712.573 710.813 701.164 696.74 701.164C682.667 701.164 671.258 712.573 671.258 726.646C671.258 740.719 682.667 752.127 696.74 752.127Z" fill="white"/>
<path d="M1023.88 401.095C1023.57 396.67 1021.88 393.639 1021.88 393.639C1005.8 357.806 986.295 341.119 986.049 340.9C980.887 335.738 973.54 332.762 965.511 333.472C953.576 334.564 943.771 344.123 942.433 356.031C941.395 365.317 945.328 373.729 951.883 379C954.641 381.212 957.099 383.752 959.284 386.51C963.626 392 967.341 398.063 970.263 403.443C971.929 406.502 973.213 409.725 974.442 412.975C978.101 422.671 987.442 429.58 998.421 429.58C1012.6 429.58 1024.07 418.109 1024.07 403.935C1024.07 402.979 1024.01 402.05 1023.9 401.122L1023.88 401.095Z" fill="white"/>
<path d="M572.009 158.406C544.998 150.813 521.046 163.568 521.046 163.568C521.046 163.568 540.628 115.063 548.821 103.264C549.258 102.636 549.668 102.008 550.105 101.38L567.202 73.5495C570.944 68.333 572.801 61.669 571.708 54.5408C570.234 44.736 562.914 36.6518 553.437 33.7841C543.769 30.8618 535.494 34.0846 528.993 39.1918C525.771 41.7317 521.729 48.5869 519.953 51.7277C519.271 52.9294 518.561 54.1038 517.823 55.2782L514.464 60.4673C514.464 60.4673 498.76 84.0097 494.09 94.6065C494.09 94.6065 475.081 134.426 469.018 155.21C463.364 172.881 460.36 184.188 458.093 190.415C455.826 196.642 449.709 210.434 448.37 253.695C446.622 285.103 452.303 294.498 467.188 308.782C479.068 318.915 492.615 321.318 506.025 322.137C526.426 323.366 540.464 317.249 547.784 312.305C559.118 304.658 571.872 292.259 580.53 279.34C594.786 258.092 601.86 242.142 604.291 212.4C606.722 182.658 599.047 165.998 572.036 158.406H572.009ZM523.094 265.985C518.779 269.727 514.682 269.399 509.548 269.618C506.789 269.836 504.878 269.618 503.567 269.235C501.737 268.716 500.562 266.914 500.562 265.029C500.644 247.332 501.737 235.424 502.256 230.89C502.365 229.825 503.321 229.142 504.386 229.361C508.646 230.262 519.407 231.327 529.704 222.26C541.393 212.018 548.521 209.505 551.061 208.904C551.607 208.768 552.126 209.205 552.099 209.778C551.498 242.033 523.094 265.958 523.094 265.958V265.985Z" fill="white"/>
<path d="M655.172 330.303C644.985 330.303 635.344 324.268 631.193 314.299C626.331 302.61 630.674 289.418 640.861 282.7C641.325 282.399 643.073 280.897 643.674 279.969C646.678 275.271 652.577 262.025 651.567 231.027C651.485 228.814 651.348 209.533 650.283 200.738C650.256 200.411 650.065 198.226 649.163 196.341C648.89 195.768 648.535 195.14 648.289 194.566C642.827 182.358 647.552 167.637 659.815 161.082C673.061 154.009 689.338 160.427 696.002 173.864C703.076 188.148 703.213 206.665 703.322 221.768C703.322 224.499 703.349 227.039 703.431 229.306C705.916 305.341 674.727 324.295 665.113 328.282C661.863 329.621 658.504 330.276 655.172 330.276V330.303Z" fill="white"/>
<path d="M981.843 1021.14C975.67 1021.14 969.471 1018.96 964.5 1014.48L936.124 988.971C925.472 979.385 924.598 962.971 934.185 952.319C943.771 941.668 960.158 940.794 970.836 950.38L999.213 975.889C1009.86 985.475 1010.74 1001.89 1001.15 1012.54C996.017 1018.25 988.944 1021.14 981.843 1021.14Z" fill="white"/>
<path d="M830.128 237.199C828.708 240.285 826.359 247.605 826.851 261.943C826.906 263.2 827.534 264.347 828.599 265.002C831.658 266.914 841.49 270.219 867.135 270.519C887.482 270.765 899.608 267.46 908.048 282.481C911.462 288.572 912.854 295.727 911.352 302.555C907.775 318.833 891.934 322.602 879.207 322.711C876.53 322.738 857.74 323.066 837.939 321.1C822.7 319.297 771.901 309.574 774.085 260.496C774.085 209.369 804.865 178.807 823.874 160.482C842.719 143.521 858.669 134.563 885.98 129.565C902.285 126.452 925.418 127.517 936.861 128.609C952.347 130.084 959.147 133.853 966.439 142.511C979.303 159.334 973.213 178.152 966.685 186.974C930.607 239.903 846.57 236.134 833.023 235.424C831.794 235.369 830.675 236.052 830.156 237.172L830.128 237.199Z" fill="white"/>
<path d="M201.64 431.683C201.64 431.683 120.771 469.455 96.1906 482.51C96.1906 482.51 48.7781 503.703 67.0494 533.254C67.0494 533.254 75.8437 551.389 97.3923 544.998C97.3923 544.998 103.073 542.677 107.771 537.706C110.42 534.893 113.643 532.708 117.084 530.933L173.564 501.819C173.564 501.819 159.717 541.693 130.193 613.031C128.882 616.199 127.38 619.285 125.769 622.316C119.842 633.432 105.094 666.424 130.002 680.954C130.002 680.954 160.809 696.876 169.767 656.838C169.767 656.838 226.52 513.371 240.395 471.967C240.395 471.967 286.824 453.068 345.325 434.633C403.826 416.198 425.893 396.615 447.961 388.422C447.961 388.422 466.314 381.949 465.03 360.756C464.621 353.846 461.89 347.127 456.837 342.375C440.805 327.272 417.918 343.249 414.723 345.652C414.723 345.652 378.317 366.136 353.737 375.695C329.156 385.254 262.244 407.567 262.244 407.567C262.244 407.567 254.514 389.351 235.151 392.765C215.787 396.178 207.757 420.677 201.612 431.683H201.64Z" fill="white"/>
<path d="M398.145 515.283C398.145 515.283 387.821 511.023 371.735 509.985C371.735 509.985 346.854 493.898 314.217 513.481C285.376 532.435 270.055 551.116 262.79 559.61C262.79 559.61 230.617 597.081 250.964 631.52C250.964 631.52 262.489 651.103 301.026 649.874C337.596 649.71 347.155 645.941 361.711 638.949C376.268 631.957 413.139 607.077 421.496 575.969C429.853 544.861 419.666 522.111 398.118 515.283H398.145ZM366.819 567.858C358.98 580.257 338.797 591.427 338.797 591.427C326.971 599.211 306.379 597.627 301.79 597.135C301.353 597.081 301.135 596.616 301.381 596.261C309.574 584.053 329.375 567.776 336.749 561.904C338.388 560.593 340.654 560.456 342.484 561.467C347.264 564.034 350.76 564.198 354.583 563.952C358.188 563.706 364.115 565.782 366.409 566.629C366.901 566.82 367.119 567.393 366.819 567.83V567.858Z" fill="white"/>
<path d="M685.215 416.334C685.215 416.334 633.268 448.179 572.774 514.546C567.148 520.718 562.013 527.328 557.452 534.347C547.429 549.805 530.905 577.854 529.84 596.589C529.84 596.589 540.109 597.654 552.673 597.053C563.106 596.562 573.347 594.432 583.152 590.881C596.644 585.992 621.907 576.324 649.382 563.215C685.679 545.872 704.578 535.794 728.066 536.204C735.904 536.34 743.552 539.426 748.823 545.189C752.264 548.958 754.968 554.038 754.367 560.456C752.837 576.543 748.304 585.637 718.862 589.898C718.862 589.898 707.637 592.629 661.508 615.379C661.508 615.379 605.356 642.691 580.476 646.624C555.595 650.556 497.34 658.149 482.756 627.205C482.756 627.205 472.65 609.507 479.451 577.444C481.69 566.902 485.569 556.796 490.567 547.265C495.046 538.689 501.901 525.88 507.636 516.458C507.636 516.458 532.817 463.037 638.43 384.462C638.43 384.462 686.99 340.764 716.431 378.399C716.431 378.399 728.558 392.054 716.131 407.84C703.677 423.626 685.187 416.334 685.187 416.334H685.215Z" fill="white"/>
<path d="M954.286 525.716C952.975 515.256 948.687 505.287 941.477 497.585C933.83 489.392 921.321 480.516 901.247 476.119C901.247 476.119 873.035 472.787 872.406 504.96C872.406 504.96 850.557 500.399 810.191 531.069C773.294 559.091 762.26 581.786 767.831 617.264C769.497 627.888 774.086 637.911 781.487 645.722C789.517 654.161 802.626 663.42 823.546 668.254C868.146 678.578 899.417 657.329 915.804 638.212C931.235 620.213 961.168 580.694 954.259 525.771L954.286 525.716ZM876.23 604.646C876.23 604.646 866.671 616.854 853.043 617.346C841.79 618.138 819.641 618.629 818.139 604.509C817.401 591.072 829.61 577.908 863.831 559.637C866.207 558.353 869.047 558.244 871.478 559.364C877.35 562.068 889.312 565.973 898.707 558.626C899.417 558.053 900.455 558.654 900.291 559.555C899.117 566.219 894.419 584.436 876.23 604.673V604.646Z" fill="white"/>
<path d="M223.352 740.301L98.1843 945.819L160.645 899.691C166.599 895.293 173.017 891.552 179.845 888.766C196.232 882.075 223.735 875.465 235.096 899.745C236.134 901.985 236.871 904.333 237.445 906.737C239.657 915.777 242.525 935.687 227.449 943.99C207.648 954.914 193.528 940.111 193.528 940.111C193.528 940.111 123.202 994.515 107.498 1000.88C107.498 1000.88 75.871 1020.22 41.9503 1003.15C7.81108 984.028 34.9039 948.305 34.9039 948.305L186.946 701.355C186.946 701.355 199.346 675.765 224.008 683.275C234.632 686.498 243.098 694.855 246.867 705.316C254.87 727.602 235.834 741.967 223.352 740.274V740.301Z" fill="white"/>
<path d="M364.006 833.16C364.006 833.16 381.977 826.223 393.147 839.305C393.147 839.305 394.349 840.507 395.796 842.719C400.603 850.148 401.258 859.543 397.981 867.764L387.111 895.075C387.111 895.075 357.861 975.07 334.892 979.631C334.892 979.631 321.018 985.885 308.946 983.727C296.874 981.57 283.792 968.597 284.366 943.553C284.939 918.508 292.723 857.303 301.053 838.486C309.383 819.668 324.268 804.51 342.321 808.143C342.321 808.143 364.333 811.639 362.504 833.788L364.033 833.187L364.006 833.16Z" fill="white"/>
<path d="M573.62 697.504C554.967 684.313 536.067 700.454 529.239 713.891L449.572 849.984C449.572 849.984 376.733 967.887 465.959 988.37C465.959 988.37 505.56 999.759 530.823 959.912C556.086 920.065 552.891 875.028 552.454 861.81C551.99 848.618 545.162 831.549 523.777 826.523L573.839 742.077L578.645 735.604C582.524 730.415 584.845 724.106 584.709 717.633C584.572 711.133 582.141 703.513 573.593 697.477L573.62 697.504ZM491.577 922.932C483.984 940.384 477.238 938.5 475.081 937.298C474.644 937.052 474.371 936.615 474.343 936.096C473.442 920.119 487.371 890.732 489.31 886.745C489.447 886.444 489.72 886.281 490.047 886.281L498.869 885.898C499.361 885.898 499.77 886.253 499.77 886.745C499.852 890.596 499.934 903.732 491.55 922.96L491.577 922.932Z" fill="white"/>
<path d="M649.081 951.2C644.411 951.2 639.714 949.943 635.453 947.321C623.272 939.784 619.503 923.779 627.041 911.598C629.718 907.283 633.514 900.783 635.753 894.174C639.386 883.44 641.27 872.461 642.745 862.192C644.985 846.652 647.415 832.969 647.525 832.395C650.037 818.275 663.475 808.88 677.622 811.393C691.742 813.906 701.137 827.37 698.624 841.49C698.624 841.627 696.248 854.955 694.118 869.621C692.37 881.72 689.912 896.085 684.914 910.806C680.981 922.468 675.191 932.437 671.176 938.91C666.26 946.83 657.766 951.2 649.081 951.2Z" fill="white"/>
<path d="M940.275 816.773C936.861 773.539 880.409 776.025 868.583 777.39C857.467 778.674 818.057 784.682 789.653 829.009C784.218 837.503 778.756 847.253 776.298 857.03C774.168 865.551 772.802 876.339 772.365 891.087C772.146 898.352 773.266 905.644 775.997 912.39C782.17 927.63 797.683 952.265 833.542 953.521C833.542 953.521 869.512 954.668 880.655 946.912C891.798 939.183 894.993 928.012 891.798 917.088C888.602 906.163 878.36 896.604 860.389 899.554C842.419 902.503 821.471 904.907 824.885 886.007C824.885 886.007 875.738 894.529 910.915 874.974C910.915 874.974 943.525 857.904 940.275 816.719V816.773ZM857.276 835.263C857.276 835.263 863.203 830.702 868.965 829.883C874.728 829.036 879.589 829.364 882.157 829.582C884.724 829.801 873.663 836.11 857.276 835.263Z" fill="white"/>
</g>
<defs>
<clipPath id="clip0_10_2864">
<rect width="1080" height="1080" fill="white"/>
</clipPath>
</defs>
</svg>
