<?xml version="1.0" encoding="UTF-8"?>
<!DOCTYPE svg PUBLIC "-//W3C//DTD SVG 1.1//EN" "http://www.w3.org/Graphics/SVG/1.1/DTD/svg11.dtd">
<svg xmlns="http://www.w3.org/2000/svg" version="1.1" width="2792px" height="1101px" style="shape-rendering:geometricPrecision; text-rendering:geometricPrecision; image-rendering:optimizeQuality; fill-rule:evenodd; clip-rule:evenodd" xmlns:xlink="http://www.w3.org/1999/xlink">
<g><path style="opacity:0.977" fill="#000000" d="M 627.5,-0.5 C 634.833,-0.5 642.167,-0.5 649.5,-0.5C 678.593,4.29801 703.093,17.6313 723,39.5C 732.13,49.7951 740.297,60.7951 747.5,72.5C 748.333,72.8333 749.167,73.1667 750,73.5C 787.835,65.9183 825.669,65.7516 863.5,73C 910.645,84.8117 938.478,114.645 947,162.5C 951.307,194.13 949.64,225.463 942,256.5C 929.968,305.101 912.134,351.435 888.5,395.5C 893.299,398.737 898.299,401.737 903.5,404.5C 903.833,404.167 904.167,403.833 904.5,403.5C 902.867,400.04 901.034,396.706 899,393.5C 898.333,390.5 898.333,387.5 899,384.5C 903.092,381.661 906.259,377.994 908.5,373.5C 913.61,378.042 916.943,383.709 918.5,390.5C 919.365,391.583 920.365,391.749 921.5,391C 925.145,387.547 927.645,383.38 929,378.5C 929.01,371.34 930.01,364.34 932,357.5C 935.645,352.911 939.311,348.245 943,343.5C 947.639,356.084 951.472,368.917 954.5,382C 949.297,387.189 943.463,391.689 937,395.5C 934.949,399.261 933.782,403.261 933.5,407.5C 934.552,407.649 935.552,407.483 936.5,407C 937.833,404.333 939.833,402.333 942.5,401C 947.231,400.063 951.898,398.896 956.5,397.5C 956.833,397.833 957.167,398.167 957.5,398.5C 960.644,413.342 962.811,428.342 964,443.5C 969.105,447.96 974.272,452.294 979.5,456.5C 979.5,457.167 979.833,457.5 980.5,457.5C 1000.18,475.512 1014.34,497.179 1023,522.5C 1027.82,538.936 1027.65,555.603 1022.5,572.5C 1022.85,574.697 1023.85,576.53 1025.5,578C 1023.57,578.251 1021.73,578.751 1020,579.5C 1018.23,584.198 1016.07,588.698 1013.5,593C 1015.9,593.795 1018.07,594.962 1020,596.5C 1020.72,598.112 1020.55,599.612 1019.5,601C 1022.12,601.795 1024.12,603.295 1025.5,605.5C 1024.78,608.917 1023.11,609.25 1020.5,606.5C 1019.61,607.325 1019.28,608.325 1019.5,609.5C 1022.65,609.211 1025.65,609.711 1028.5,611C 1029.23,612.399 1029.73,613.899 1030,615.5C 1032.14,616.646 1033.98,618.146 1035.5,620C 1035.17,620.5 1034.83,621 1034.5,621.5C 1031.6,620.43 1029.1,618.764 1027,616.5C 1026.59,616.957 1026.09,617.291 1025.5,617.5C 1024.56,615.947 1023.39,614.613 1022,613.5C 1019.92,614.943 1019.09,614.276 1019.5,611.5C 1016.51,611.33 1014.51,612.663 1013.5,615.5C 1012.26,614.754 1010.93,614.421 1009.5,614.5C 1009.01,616.807 1009.01,618.973 1009.5,621C 1009.83,621.167 1010.17,621.333 1010.5,621.5C 1011.17,620.167 1011.83,618.833 1012.5,617.5C 1013.6,618.615 1014.77,618.615 1016,617.5C 1017.06,617.63 1017.89,618.13 1018.5,619C 1014.75,618.965 1014.09,619.965 1016.5,622C 1018.62,622.098 1020.29,622.931 1021.5,624.5C 1025.98,625.058 1030.31,625.891 1034.5,627C 1030.19,628.248 1025.53,629.081 1020.5,629.5C 1007.03,629.533 1001.2,622.866 1003,609.5C 1001.02,612.312 998.856,614.978 996.5,617.5C 998.624,618.149 1000.62,618.983 1002.5,620C 1001.67,620.915 1000.67,621.581 999.5,622C 999.788,624.238 1001.12,626.071 1003.5,627.5C 1004.09,629.373 1003.42,631.04 1001.5,632.5C 1005,632.744 1008.67,633.244 1012.5,634C 1018.65,639.703 1018.81,645.536 1013,651.5C 1012.98,653.791 1012.82,655.958 1012.5,658C 1013.21,659.255 1014.04,660.421 1015,661.5C 1016.81,660.391 1017.65,661.058 1017.5,663.5C 1018.5,663.5 1019.5,663.5 1020.5,663.5C 1020.5,664.5 1020.5,665.5 1020.5,666.5C 1026.4,665.074 1028.4,667.074 1026.5,672.5C 1025.45,672.351 1024.45,672.517 1023.5,673C 1027.1,674.334 1028.27,676.834 1027,680.5C 1024.66,680.368 1022.33,681.035 1020,682.5C 1018.89,682.415 1017.89,682.081 1017,681.5C 1016.78,682.938 1016.28,684.271 1015.5,685.5C 1014.91,685.291 1014.41,684.957 1014,684.5C 1013.58,685.672 1012.91,686.672 1012,687.5C 1009.47,683.779 1007.47,679.779 1006,675.5C 1004.2,677.837 1002.04,678.503 999.5,677.5C 1000.04,676.252 1000.71,675.085 1001.5,674C 999.222,673.014 996.889,672.18 994.5,671.5C 992.493,673.008 990.826,674.842 989.5,677C 987.714,677.196 986.381,678.029 985.5,679.5C 986.014,682.735 987.348,685.568 989.5,688C 989.355,688.772 989.022,689.439 988.5,690C 991.463,691.961 994.129,694.294 996.5,697C 997.448,697.483 998.448,697.649 999.5,697.5C 999.814,701.193 998.148,703.527 994.5,704.5C 992.016,702.517 989.683,700.35 987.5,698C 986.833,697.333 986.167,697.333 985.5,698C 986.059,698.725 986.392,699.558 986.5,700.5C 985.158,702.512 984.158,704.678 983.5,707C 984.604,708.82 986.104,710.32 988,711.5C 990.122,717.256 987.955,719.923 981.5,719.5C 981.244,723.521 982.91,724.854 986.5,723.5C 987.468,728.145 987.468,732.812 986.5,737.5C 989.337,735.739 991.67,736.239 993.5,739C 991.02,739.96 988.52,740.793 986,741.5C 984.249,743.212 983.582,745.212 984,747.5C 985.011,746.663 986.178,746.33 987.5,746.5C 987.014,749.755 988.014,752.422 990.5,754.5C 989.608,760.445 986.275,762.612 980.5,761C 976.257,756.568 976.59,752.568 981.5,749C 979.89,747.505 978.224,747.339 976.5,748.5C 973.98,746.737 971.647,744.737 969.5,742.5C 968.869,740.522 968.869,738.355 969.5,736C 967.741,734.236 967.574,732.069 969,729.5C 969.333,729.833 969.667,730.167 970,730.5C 971.905,728.576 973.072,726.243 973.5,723.5C 974.376,722.749 975.376,722.249 976.5,722C 975.584,721.626 974.75,721.126 974,720.5C 973.275,718.051 972.275,715.717 971,713.5C 969.905,709.437 970.739,705.937 973.5,703C 973.491,701.596 972.991,700.43 972,699.5C 969.667,700.5 968,702.167 967,704.5C 968.131,706.977 967.631,709.143 965.5,711C 968.474,714.45 970.808,718.283 972.5,722.5C 971.998,723.521 971.332,723.688 970.5,723C 967.188,719.612 964.355,716.112 962,712.5C 958.833,715.667 955.667,718.833 952.5,722C 956.116,723.487 959.783,724.82 963.5,726C 967.436,729.423 967.102,730.757 962.5,730C 960.338,727.609 957.838,727.109 955,728.5C 952.485,727.885 950.152,726.885 948,725.5C 944.41,728.046 940.577,730.213 936.5,732C 938.183,741.792 934.183,747.959 924.5,750.5C 923.714,754.549 922.714,758.549 921.5,762.5C 920.719,761.271 920.219,759.938 920,758.5C 919.781,759.938 919.281,761.271 918.5,762.5C 917.808,761.975 917.308,761.308 917,760.5C 916.944,763.78 916.111,766.78 914.5,769.5C 907.077,763.271 903.743,764.938 904.5,774.5C 904,774.833 903.5,775.167 903,775.5C 899.634,771.473 895.634,768.14 891,765.5C 888.613,767.746 886.113,769.912 883.5,772C 881.08,772.687 878.913,772.187 877,770.5C 875.478,774.113 874.644,777.947 874.5,782C 875.309,788.456 878.309,789.789 883.5,786C 881.623,783.769 880.79,781.269 881,778.5C 882,779.5 883,780.5 884,781.5C 884.423,780.044 885.256,779.544 886.5,780C 888.225,783.774 891.225,785.274 895.5,784.5C 895.222,782.654 895.889,781.32 897.5,780.5C 896.892,782.684 897.559,784.684 899.5,786.5C 901.156,788.022 902.323,787.689 903,785.5C 907.755,789.419 910.588,794.419 911.5,800.5C 910.723,807.609 906.723,811.275 899.5,811.5C 896.824,811.163 894.157,810.83 891.5,810.5C 891.578,807.513 890.411,806.847 888,808.5C 886.189,807.576 886.355,806.743 888.5,806C 887.5,805.5 886.5,805 885.5,804.5C 884.561,806.053 883.394,807.387 882,808.5C 880.248,807.714 878.414,807.88 876.5,809C 878.5,809.333 880.5,809.667 882.5,810C 883.357,810.689 884.023,811.522 884.5,812.5C 881.554,813.321 878.554,813.321 875.5,812.5C 875.616,815.91 873.95,817.244 870.5,816.5C 870.5,815.5 870.5,814.5 870.5,813.5C 867.52,813.38 864.687,812.713 862,811.5C 861.846,814.232 862.346,816.898 863.5,819.5C 862.288,821.923 860.288,822.923 857.5,822.5C 858.684,828.816 857.017,834.149 852.5,838.5C 853.371,843.626 856.037,844.793 860.5,842C 861.071,840.795 861.738,839.628 862.5,838.5C 863.086,838.709 863.586,839.043 864,839.5C 865.941,835.884 865.775,832.384 863.5,829C 865.985,821.09 871.318,818.423 879.5,821C 884.966,824.967 889.632,829.801 893.5,835.5C 891.914,837.173 891.247,839.173 891.5,841.5C 885.827,841.982 881.16,844.482 877.5,849C 872.77,848.966 872.27,850.466 876,853.5C 878.355,865.477 873.522,870.643 861.5,869C 858.859,867.469 855.525,866.303 851.5,865.5C 854.362,864.694 854.862,863.361 853,861.5C 852.331,864.028 851.498,864.028 850.5,861.5C 851.326,860.549 851.492,859.549 851,858.5C 847.641,856.991 844.641,854.991 842,852.5C 838.763,854.537 835.597,856.704 832.5,859C 830.5,859.667 828.5,859.667 826.5,859C 823.056,856.944 819.389,855.444 815.5,854.5C 813.054,856.764 810.387,858.931 807.5,861C 804.886,861.505 803.553,860.338 803.5,857.5C 803.709,856.006 804.376,854.839 805.5,854C 804.346,851.241 804.679,848.575 806.5,846C 805.142,843.502 804.809,841.002 805.5,838.5C 804.568,836.205 803.735,833.871 803,831.5C 801.656,836.694 800.489,836.694 799.5,831.5C 796.362,830.195 794.029,828.029 792.5,825C 802.865,817.481 812.865,809.481 822.5,801C 823.448,800.517 824.448,800.351 825.5,800.5C 826.066,804.427 826.233,808.427 826,812.5C 826.833,813.333 827.667,814.167 828.5,815C 833.715,814.599 838.882,813.765 844,812.5C 847.908,816.762 849.575,815.762 849,809.5C 849.5,808.333 850.333,807.5 851.5,807C 849.981,805.649 848.648,804.149 847.5,802.5C 846.914,802.709 846.414,803.043 846,803.5C 846.772,801.164 846.606,798.831 845.5,796.5C 845.669,794.161 846.336,791.994 847.5,790C 845.382,789.74 843.716,788.74 842.5,787C 846.322,785.924 850.156,784.758 854,783.5C 854.167,783.167 854.333,782.833 854.5,782.5C 851.378,781.439 848.378,780.106 845.5,778.5C 851.467,772.411 856.3,765.744 860,758.5C 821.335,802.355 775.501,836.355 722.5,860.5C 722.5,862.167 722.5,863.833 722.5,865.5C 704.714,869.558 687.381,875.058 670.5,882C 664.167,889.667 657.167,896.667 649.5,903C 652.789,904.41 654.456,906.91 654.5,910.5C 656.467,910.261 658.301,910.594 660,911.5C 661.008,915.771 660.508,919.771 658.5,923.5C 659.606,927.777 659.772,932.11 659,936.5C 655.515,938.82 652.349,941.487 649.5,944.5C 648.551,947.126 648.551,949.792 649.5,952.5C 651.655,952.372 653.655,952.872 655.5,954C 658.692,958.704 662.358,963.038 666.5,967C 662.938,967.739 659.772,969.239 657,971.5C 656.934,975.233 656.101,978.733 654.5,982C 657.24,986.125 660.907,988.458 665.5,989C 667.558,985.799 668.558,986.299 668.5,990.5C 671.206,990.425 673.873,990.092 676.5,989.5C 676.263,992.212 676.263,994.712 676.5,997C 672.649,997.54 668.815,997.374 665,996.5C 662.966,996.354 661.299,997.02 660,998.5C 657.661,994.934 654.828,994.601 651.5,997.5C 651.833,998.167 652.167,998.833 652.5,999.5C 650.604,1000.47 648.604,1000.8 646.5,1000.5C 646.595,1003.27 647.929,1005.27 650.5,1006.5C 648.525,1007.28 647.691,1008.61 648,1010.5C 650.22,1013.02 652.72,1015.19 655.5,1017C 653.777,1017.52 652.444,1018.52 651.5,1020C 652.22,1022.64 652.386,1025.14 652,1027.5C 647.756,1022.96 642.589,1021.12 636.5,1022C 637.376,1023.59 638.376,1025.09 639.5,1026.5C 637.671,1027.28 636.171,1026.62 635,1024.5C 634.362,1025.61 633.862,1026.78 633.5,1028C 635.229,1030.63 636.563,1033.46 637.5,1036.5C 637.41,1038.43 636.41,1039.59 634.5,1040C 635.308,1042.09 636.308,1044.09 637.5,1046C 636.529,1047.48 635.196,1048.31 633.5,1048.5C 634.014,1050.37 634.68,1052.2 635.5,1054C 633.497,1056.98 633.497,1060.15 635.5,1063.5C 635.167,1064.17 634.833,1064.83 634.5,1065.5C 632.202,1064.1 631.536,1062.27 632.5,1060C 629.971,1057.36 628.971,1054.19 629.5,1050.5C 626.282,1050.35 625.949,1049.52 628.5,1048C 626.484,1044.99 624.317,1044.82 622,1047.5C 621.667,1046.17 621.333,1044.83 621,1043.5C 619.036,1043.94 616.87,1044.77 614.5,1046C 615.191,1047.07 615.691,1048.23 616,1049.5C 616.833,1048.5 617.667,1047.5 618.5,1046.5C 621.56,1048.02 623.06,1050.35 623,1053.5C 622,1052.17 621,1050.83 620,1049.5C 619.5,1050 619,1050.5 618.5,1051C 621.574,1053.65 623.074,1056.82 623,1060.5C 626.319,1062.41 628.819,1065.07 630.5,1068.5C 630.167,1068.83 629.833,1069.17 629.5,1069.5C 627.426,1066.92 624.76,1065.42 621.5,1065C 615.972,1061.15 612.472,1055.98 611,1049.5C 610.242,1047.23 610.409,1045.06 611.5,1043C 610.234,1042.69 609.067,1042.19 608,1041.5C 606.783,1043.52 606.617,1045.52 607.5,1047.5C 605.983,1049.19 604.316,1050.69 602.5,1052C 605.5,1054.33 608.167,1057 610.5,1060C 610.374,1061.97 610.208,1064.14 610,1066.5C 607.982,1071.41 604.482,1073.58 599.5,1073C 598.002,1075.48 596.502,1077.98 595,1080.5C 594.641,1077.46 593.974,1077.12 593,1079.5C 592.667,1078.83 592.333,1078.17 592,1077.5C 590.548,1083.81 588.048,1084.14 584.5,1078.5C 583.167,1080.5 581.833,1082.5 580.5,1084.5C 578.625,1081.25 576.625,1078.08 574.5,1075C 571.136,1075.55 567.803,1075.55 564.5,1075C 562.648,1078.21 560.981,1081.54 559.5,1085C 561.073,1090.03 562.073,1095.2 562.5,1100.5C 561.167,1100.5 559.833,1100.5 558.5,1100.5C 558.167,1099.17 557.833,1099.17 557.5,1100.5C 556.833,1100.5 556.167,1100.5 555.5,1100.5C 555.515,1096.44 555.015,1092.44 554,1088.5C 551.778,1091.36 548.945,1093.36 545.5,1094.5C 543.833,1093.5 542.5,1092.17 541.5,1090.5C 540.205,1089.9 538.872,1089.4 537.5,1089C 539.167,1086.67 540.833,1084.33 542.5,1082C 541.313,1080.98 540.313,1079.81 539.5,1078.5C 542.259,1078.68 544.925,1078.18 547.5,1077C 546.692,1076.69 546.025,1076.19 545.5,1075.5C 546.724,1073.16 546.724,1070.83 545.5,1068.5C 544.066,1069.94 542.9,1071.6 542,1073.5C 541.492,1071.1 540.325,1070.43 538.5,1071.5C 536.984,1074.53 535.484,1077.53 534,1080.5C 533.031,1078.27 531.698,1076.27 530,1074.5C 525.085,1080.23 523.918,1079.73 526.5,1073C 525.167,1071.33 523.833,1069.67 522.5,1068C 522.833,1067.5 523.167,1067 523.5,1066.5C 524.5,1067.17 525.5,1067.83 526.5,1068.5C 527.356,1065.86 527.19,1063.19 526,1060.5C 521.802,1064.63 520.969,1064.13 523.5,1059C 516.289,1057.89 509.956,1059.72 504.5,1064.5C 503.354,1063.86 502.354,1063.02 501.5,1062C 503.539,1059.63 505.872,1057.63 508.5,1056C 506.766,1054.27 504.766,1052.93 502.5,1052C 503.167,1051.67 503.833,1051.33 504.5,1051C 503.08,1049.47 502.08,1047.64 501.5,1045.5C 500.128,1043.13 498.128,1041.47 495.5,1040.5C 495.977,1039.07 496.643,1037.74 497.5,1036.5C 499.042,1037.75 500.542,1037.75 502,1036.5C 501.695,1034.56 501.695,1032.56 502,1030.5C 502.915,1031.33 503.581,1032.33 504,1033.5C 504.333,1032.83 504.667,1032.17 505,1031.5C 506.009,1033.02 506.509,1034.69 506.5,1036.5C 512.306,1036.53 512.972,1034.7 508.5,1031C 503.62,1027.81 498.453,1026.31 493,1026.5C 491.582,1031.43 491.249,1036.43 492,1041.5C 497.835,1046.39 498.002,1051.56 492.5,1057C 488.834,1058.27 486.334,1057.1 485,1053.5C 483.239,1049.91 483.739,1046.58 486.5,1043.5C 485.141,1041.31 483.308,1039.64 481,1038.5C 478.646,1040.85 475.979,1041.51 473,1040.5C 469.964,1044.1 466.797,1046.77 463.5,1048.5C 461.851,1047.35 460.351,1046.02 459,1044.5C 456.275,1046.34 453.609,1048 451,1049.5C 449.926,1048.38 448.76,1047.38 447.5,1046.5C 452.02,1042.39 451.354,1039.55 445.5,1038C 446.5,1037.67 447.5,1037.33 448.5,1037C 447.424,1035.27 447.257,1033.44 448,1031.5C 451.062,1029.87 452.729,1030.87 453,1034.5C 453.5,1033.5 454,1032.5 454.5,1031.5C 453.014,1026.51 453.847,1026.18 457,1030.5C 458.044,1029.38 458.71,1028.04 459,1026.5C 460.726,1027.58 462.559,1027.74 464.5,1027C 462.506,1023.48 460.173,1020.31 457.5,1017.5C 454.891,1018.23 452.224,1018.73 449.5,1019C 450.731,1020.18 450.731,1021.35 449.5,1022.5C 448.549,1021.67 447.549,1021.51 446.5,1022C 443.781,1023.6 441.614,1025.76 440,1028.5C 438.319,1026.45 436.819,1024.29 435.5,1022C 440.575,1017.71 445.742,1013.55 451,1009.5C 452.366,1007.63 453.533,1005.63 454.5,1003.5C 453.135,1001.25 453.469,999.249 455.5,997.5C 455.167,996.5 454.5,995.833 453.5,995.5C 452.109,996.645 450.776,996.645 449.5,995.5C 450.711,994.28 450.711,993.113 449.5,992C 446.167,991.667 442.833,991.333 439.5,991C 441.181,989.055 441.848,987.055 441.5,985C 438.26,985.752 435.26,987.252 432.5,989.5C 428.66,983.985 426.16,984.652 425,991.5C 423.916,990.335 423.083,989.002 422.5,987.5C 421.635,986.417 420.635,986.251 419.5,987C 417.545,989.168 416.879,991.502 417.5,994C 419.055,995.646 420.721,995.979 422.5,995C 421.189,1000.78 420.022,1006.61 419,1012.5C 416.795,1015.04 414.295,1017.21 411.5,1019C 408.333,1019.25 405.333,1019.42 402.5,1019.5C 399.334,1014.67 395,1011.34 389.5,1009.5C 387.437,1014.58 385.104,1014.75 382.5,1010C 383.217,1008.47 384.217,1007.14 385.5,1006C 383.428,1001.61 384.761,998.946 389.5,998C 388.284,996.26 386.618,995.26 384.5,995C 386.167,992.667 387.833,990.333 389.5,988C 384.099,984.694 384.599,983.861 391,985.5C 394.088,984.746 394.254,983.58 391.5,982C 393.143,974.448 392.31,973.948 389,980.5C 387.921,978.606 386.587,978.273 385,979.5C 383.829,981.842 382.662,984.176 381.5,986.5C 380.167,985.167 378.833,983.833 377.5,982.5C 372.149,986.843 371.149,985.843 374.5,979.5C 372.833,978.5 371.5,977.167 370.5,975.5C 371.651,974.269 372.817,974.269 374,975.5C 374.808,973.421 374.641,971.421 373.5,969.5C 369.28,972.11 368.613,971.276 371.5,967C 364.709,965.819 358.876,967.653 354,972.5C 352.322,971.534 351.655,970.201 352,968.5C 353.558,966.641 355.391,965.141 357.5,964C 355.234,963.068 353.234,961.734 351.5,960C 351.833,959.667 352.167,959.333 352.5,959C 351.554,954.877 349.221,951.711 345.5,949.5C 346.641,948.575 346.641,947.741 345.5,947C 347.112,946.28 348.612,946.446 350,947.5C 351.696,943.844 351.196,940.344 348.5,937C 344.345,934.388 342.178,935.555 342,940.5C 340.346,946.152 341.679,950.819 346,954.5C 347.308,962.182 344.308,965.516 337,964.5C 336.581,963.328 335.915,962.328 335,961.5C 334.83,958.532 334.664,955.699 334.5,953C 332.153,952.666 329.819,952.833 327.5,953.5C 327.5,952.5 327.5,951.5 327.5,950.5C 323.585,950.334 320.751,952.001 319,955.5C 318.667,955.167 318.333,954.833 318,954.5C 317.311,955.357 316.478,956.023 315.5,956.5C 313.922,955.36 312.256,954.86 310.5,955C 311.799,958.135 311.799,961.301 310.5,964.5C 306.885,964.781 303.219,964.781 299.5,964.5C 297.981,960.42 296.648,956.253 295.5,952C 296.366,948.489 298.033,945.489 300.5,943C 300.333,942.167 300.167,941.333 300,940.5C 297.834,938.879 295.334,938.045 292.5,938C 291.782,936.013 290.782,934.179 289.5,932.5C 292.661,929.509 295.995,926.675 299.5,924C 298.207,923.51 296.873,923.343 295.5,923.5C 295.579,922.07 295.246,920.736 294.5,919.5C 295,919.167 295.5,918.833 296,918.5C 297.235,919.615 298.402,919.615 299.5,918.5C 302.545,921.171 304.878,920.504 306.5,916.5C 305.833,915.5 305.167,914.5 304.5,913.5C 305.5,912.167 306.5,910.833 307.5,909.5C 305.955,908.548 304.288,908.215 302.5,908.5C 302.785,906.712 302.452,905.045 301.5,903.5C 300.205,905.328 299.205,907.328 298.5,909.5C 297.354,908.855 296.354,908.022 295.5,907C 294.056,906.219 292.723,906.386 291.5,907.5C 289.392,913.324 287.392,919.157 285.5,925C 288.059,928.075 288.059,931.075 285.5,934C 281.764,934.61 278.097,934.277 274.5,933C 270.323,930.816 266.157,928.65 262,926.5C 260.832,927.509 259.665,928.509 258.5,929.5C 257.614,928.675 257.281,927.675 257.5,926.5C 255.187,925.332 252.854,923.998 250.5,922.5C 248.931,923.714 248.098,925.381 248,927.5C 245.667,922.672 243.167,922.839 240.5,928C 237.713,928.789 237.213,928.289 239,926.5C 239.232,922.445 239.732,918.445 240.5,914.5C 234.186,911.785 228.019,908.785 222,905.5C 220.653,898.204 223.486,894.704 230.5,895C 232.833,892.667 235.167,890.333 237.5,888C 235.624,886.983 233.624,886.149 231.5,885.5C 231.709,884.914 232.043,884.414 232.5,884C 230.423,883.808 228.423,883.308 226.5,882.5C 230.709,881.541 231.209,879.874 228,877.5C 227.692,878.308 227.192,878.975 226.5,879.5C 224.648,877.143 223.481,874.477 223,871.5C 220.097,870.931 218.097,869.265 217,866.5C 216.308,867.025 215.808,867.692 215.5,868.5C 216.633,871.256 215.633,873.089 212.5,874C 216.179,882.962 213.846,889.962 205.5,895C 203.833,895.667 202.167,895.667 200.5,895C 196.327,891.341 193.66,886.841 192.5,881.5C 193.277,877.946 194.61,874.613 196.5,871.5C 193.128,868.723 189.628,866.057 186,863.5C 181.749,868.614 176.249,871.114 169.5,871C 167.154,874.502 164.82,878.002 162.5,881.5C 161.749,880.624 161.249,879.624 161,878.5C 159.478,880.741 158.145,883.074 157,885.5C 156.505,883.527 156.338,881.527 156.5,879.5C 153.795,879.38 153.128,880.38 154.5,882.5C 154,882.833 153.5,883.167 153,883.5C 151.333,882.5 149.667,881.5 148,880.5C 146.941,880.63 146.108,881.13 145.5,882C 148.184,882.778 150.517,884.111 152.5,886C 151.975,886.692 151.308,887.192 150.5,887.5C 146.799,885.097 142.799,884.263 138.5,885C 137.687,886.803 136.52,888.303 135,889.5C 133.72,889.387 132.887,888.72 132.5,887.5C 133.833,886.38 134.333,885.047 134,883.5C 132.647,884.685 131.48,886.019 130.5,887.5C 130.167,886.833 129.833,886.167 129.5,885.5C 130.406,883.253 131.739,881.253 133.5,879.5C 130.134,876.883 127.134,877.383 124.5,881C 125.313,882.314 126.313,883.481 127.5,884.5C 121.995,888.842 116.662,893.342 111.5,898C 108.833,898.667 106.167,898.667 103.5,898C 103.833,897.667 104.167,897.333 104.5,897C 107.135,896.28 109.802,895.613 112.5,895C 110.236,894.764 108.069,894.264 106,893.5C 104.867,895.211 103.367,895.711 101.5,895C 103.657,893.915 103.824,892.749 102,891.5C 98.6468,894.316 95.4802,894.15 92.5,891C 93.2744,888.595 93.7744,886.095 94,883.5C 95.0113,882.663 96.1779,882.33 97.5,882.5C 97.8609,877.054 98.8609,871.721 100.5,866.5C 101.965,867.609 102.965,867.109 103.5,865C 102.115,863.035 102.282,861.202 104,859.5C 104.333,860.833 104.667,862.167 105,863.5C 106.545,864.821 107.711,864.488 108.5,862.5C 105.967,860.974 106.3,859.974 109.5,859.5C 110.442,859.608 111.275,859.941 112,860.5C 113.903,858.559 114.736,856.226 114.5,853.5C 113.162,855.113 111.495,855.613 109.5,855C 107.996,851.656 105.996,848.656 103.5,846C 112.735,837.435 121.235,828.268 129,818.5C 130.645,815.378 132.145,812.212 133.5,809C 131.876,807.883 130.876,806.383 130.5,804.5C 131.94,802.306 132.773,799.973 133,797.5C 129.565,796.534 126.065,796.534 122.5,797.5C 122.622,803.541 120.288,804.875 115.5,801.5C 114.048,798.718 114.381,796.218 116.5,794C 115.773,792.601 115.273,791.101 115,789.5C 111.58,790.182 108.246,791.182 105,792.5C 105.089,789.051 105.922,785.717 107.5,782.5C 107.297,780.792 106.464,779.459 105,778.5C 102.89,781.492 101.557,784.825 101,788.5C 99.6124,789.554 98.1124,789.72 96.5,789C 92.4496,784.405 88.2829,779.905 84,775.5C 83.6833,771.09 84.1833,766.757 85.5,762.5C 83.3352,762.884 81.6685,762.217 80.5,760.5C 81.1667,758.167 81.8333,755.833 82.5,753.5C 80.7053,751.023 79.0386,748.523 77.5,746C 81.8956,743.701 86.5623,742.534 91.5,742.5C 91.5,741.167 91.5,739.833 91.5,738.5C 90.1266,738.657 88.7932,738.49 87.5,738C 86.2101,735.708 84.5435,733.708 82.5,732C 77.8333,730.333 73.1667,728.667 68.5,727C 64.2127,723.489 64.8794,722.156 70.5,723C 72.5644,723.653 74.2311,724.82 75.5,726.5C 77.1639,725.777 78.8306,726.11 80.5,727.5C 85.2323,717.167 81.899,713.001 70.5,715C 71.1667,714.667 71.8333,714.333 72.5,714C 70.0588,713.964 68.0588,713.131 66.5,711.5C 66.7093,710.914 67.0426,710.414 67.5,710C 73.3577,710.913 77.0244,708.58 78.5,703C 77.3507,701.27 77.3507,699.604 78.5,698C 79.4491,697.383 80.2825,697.549 81,698.5C 82.2037,704.774 84.537,705.107 88,699.5C 92.3172,693.369 90.9839,691.036 84,692.5C 82.6244,692.316 81.7911,691.649 81.5,690.5C 76.4281,698.186 69.4281,700.52 60.5,697.5C 57.7862,697.94 55.6195,699.274 54,701.5C 54.1282,699.555 53.9615,697.722 53.5,696C 50.9221,695.112 48.2554,694.612 45.5,694.5C 50.0178,693.207 50.3511,691.54 46.5,689.5C 45.792,686.634 45.1253,683.8 44.5,681C 50.7558,676.345 54.9225,670.178 57,662.5C 60.8495,660.331 64.8495,659.998 69,661.5C 69.6449,660.354 70.4783,659.354 71.5,658.5C 70.2887,657.126 69.2887,655.626 68.5,654C 69.6479,652.274 70.8145,652.441 72,654.5C 72.8699,653.892 73.3699,653.059 73.5,652C 72.6458,651.426 71.6458,650.759 70.5,650C 71.2064,647.38 72.2064,644.88 73.5,642.5C 72.2272,640.016 72.2272,637.516 73.5,635C 71.7991,633.14 70.7991,630.973 70.5,628.5C 71.9778,628.762 73.3112,628.429 74.5,627.5C 73.1451,626.325 73.3117,625.325 75,624.5C 76.6811,626.548 78.1811,628.715 79.5,631C 81.1667,631.667 82.8333,631.667 84.5,631C 85.4771,628.398 86.6437,625.898 88,623.5C 88.3333,625.5 88.6667,627.5 89,629.5C 89.6667,628.833 90.3333,628.167 91,627.5C 91.2868,629.891 91.7868,632.224 92.5,634.5C 91.91,635.799 90.91,636.632 89.5,637C 91.0175,638.685 92.6841,640.185 94.5,641.5C 96.8268,638.863 97.9935,635.863 98,632.5C 94.7728,625.045 91.2728,617.712 87.5,610.5C 85.7475,608.739 83.7475,607.406 81.5,606.5C 73.3494,610.824 67.3494,617.324 63.5,626C 67.6674,637.658 63.6674,644.491 51.5,646.5C 46.2943,646.755 43.2943,644.422 42.5,639.5C 41.367,628.902 46.0336,623.069 56.5,622C 55.9103,620.491 55.2436,618.991 54.5,617.5C 50.9366,619.115 47.2699,620.448 43.5,621.5C 32.1706,619.012 28.1706,612.179 31.5,601C 29.765,600.349 28.0983,600.515 26.5,601.5C 25.2888,600.726 25.2888,599.893 26.5,599C 26,598.833 25.5,598.667 25,598.5C 22.8801,599.459 20.7135,599.626 18.5,599C 20.0614,598.059 21.3947,596.892 22.5,595.5C 20.373,592.535 19.2063,592.869 19,596.5C 18.0774,593.878 16.9107,591.378 15.5,589C 12.3486,589.012 9.68189,588.012 7.5,586C 5.19018,585.503 2.85684,585.337 0.5,585.5C 0.432576,582.234 2.09924,580.734 5.5,581C 3.5273,580.505 1.5273,580.338 -0.5,580.5C -0.5,579.833 -0.5,579.167 -0.5,578.5C 2.34035,577.88 5.17368,577.213 8,576.5C 8.31762,574.939 9.15095,573.772 10.5,573C 8.39375,569.961 6.89375,566.795 6,563.5C 10.3035,568.716 11.9702,568.383 11,562.5C 11.3333,562.833 11.6667,563.167 12,563.5C 14.8563,557.291 17.6897,557.125 20.5,563C 19.9169,565.499 18.5836,567.499 16.5,569C 21.9795,568.909 24.9795,566.075 25.5,560.5C 26.2922,562.465 26.9588,564.465 27.5,566.5C 28.9337,567.23 30.1004,568.23 31,569.5C 32.5848,568.624 33.5848,567.291 34,565.5C 36.6667,568.167 39.3333,570.833 42,573.5C 42.6667,571.833 42.6667,570.167 42,568.5C 35.0649,560.9 28.8982,552.734 23.5,544C 18.908,541.895 14.408,542.061 10,544.5C 9.22797,544.355 8.5613,544.022 8,543.5C 7.30469,540.004 7.80469,536.67 9.5,533.5C 9.29069,532.914 8.95735,532.414 8.5,532C 11.5,531.667 14.5,531.333 17.5,531C 3.80034,502.942 4.30034,475.109 19,447.5C 28.9539,431.205 41.4539,417.038 56.5,405C 80.4482,386.851 106.448,372.017 134.5,360.5C 138.7,350.601 143.033,340.768 147.5,331C 147,330.5 146.5,330 146,329.5C 141.135,331.457 139.301,334.79 140.5,339.5C 139.5,339.5 138.5,339.5 137.5,339.5C 137.759,335.638 136.259,333.638 133,333.5C 131.956,334.623 131.29,335.956 131,337.5C 126.667,334.833 122.333,332.167 118,329.5C 112.284,320.148 113.784,312.314 122.5,306C 125.72,305.284 128.72,304.117 131.5,302.5C 131.998,303.603 132.331,304.603 132.5,305.5C 134.316,303.559 136.316,302.892 138.5,303.5C 137.687,304.814 136.687,305.981 135.5,307C 137.406,308.993 138.573,308.493 139,305.5C 140.791,306.912 141.958,308.745 142.5,311C 144.377,311.576 146.211,311.409 148,310.5C 150.047,311.609 152.213,312.276 154.5,312.5C 150.833,327.168 147.166,341.835 143.5,356.5C 157.61,351.407 171.777,346.407 186,341.5C 182.097,291.575 191.93,244.575 215.5,200.5C 212.52,191.291 215.853,186.458 225.5,186C 228.045,182.41 230.712,178.91 233.5,175.5C 231.455,173.241 229.789,170.741 228.5,168C 229.148,166.56 229.481,165.06 229.5,163.5C 231.655,163.628 233.655,163.128 235.5,162C 237.539,159.626 239.872,157.626 242.5,156C 241.378,152.591 241.211,149.091 242,145.5C 243.779,143.236 246.113,141.903 249,141.5C 252.959,142.264 256.792,143.431 260.5,145C 259.742,146.364 260.242,147.531 262,148.5C 267.055,144.116 269.555,145.116 269.5,151.5C 266.759,153.953 263.925,156.286 261,158.5C 260.209,159.745 259.709,161.078 259.5,162.5C 255.497,162.971 252.331,164.971 250,168.5C 250.134,170.189 250.634,171.856 251.5,173.5C 253.296,172.207 254.963,170.707 256.5,169C 265.008,168.083 273.341,166.416 281.5,164C 282.767,162.204 282.767,160.371 281.5,158.5C 286.012,155.85 288.846,151.85 290,146.5C 291.167,145.333 292.333,144.167 293.5,143C 298.916,140.861 304.249,138.528 309.5,136C 312.887,132.947 316.553,130.28 320.5,128C 322.5,125 324.5,122 326.5,119C 332.1,116.705 336.766,113.205 340.5,108.5C 397.224,77.6503 457.89,60.4836 522.5,57C 521.549,56.2825 521.383,55.4491 522,54.5C 543.928,34.2631 568.762,18.4298 596.5,7C 606.777,3.67952 617.111,1.17952 627.5,-0.5 Z M 530.5,56.5 C 554.46,34.5103 582.127,18.6769 613.5,9C 644.055,1.97779 672.055,7.64446 697.5,26C 714.645,40.143 729.312,56.4764 741.5,75C 726.537,77.949 711.704,81.449 697,85.5C 643.446,64.8796 587.946,55.213 530.5,56.5 Z M 789.5,74.5 C 807.532,74.134 825.532,74.634 843.5,76C 901.717,83.5504 934.55,116.384 942,174.5C 944.312,211.672 939.645,248.005 928,283.5C 915.978,321.545 900.645,358.212 882,393.5C 862.076,383.859 841.743,375.192 821,367.5C 818.342,305.558 809.342,244.558 794,184.5C 791.549,175.189 788.715,166.022 785.5,157C 788.223,154.401 791.057,151.901 794,149.5C 799.665,153.125 805.832,154.625 812.5,154C 800.297,143.318 787.464,133.485 774,124.5C 767.634,109.434 760.467,94.7677 752.5,80.5C 764.843,77.7646 777.176,75.7646 789.5,74.5 Z M 740.5,81.5 C 743.325,81.1616 745.492,82.1616 747,84.5C 753.47,95.4329 758.803,106.766 763,118.5C 745.511,107.838 727.344,98.3376 708.5,90C 719.195,86.8279 729.862,83.9945 740.5,81.5 Z M 428.5,100.5 C 439.096,101.285 449.762,102.451 460.5,104C 463.181,107.054 462.348,108.887 458,109.5C 456.798,111.677 456.298,114.011 456.5,116.5C 460.182,116.335 463.848,116.501 467.5,117C 423.604,156.557 388.437,202.724 362,255.5C 359.53,243.75 356.03,232.25 351.5,221C 352.525,215.694 354.525,210.861 357.5,206.5C 354.935,204.096 352.935,201.262 351.5,198C 353.203,196.63 354.536,194.964 355.5,193C 353.151,192.423 350.651,191.256 348,189.5C 348.002,180.813 345.502,172.979 340.5,166C 334.159,163.461 327.659,162.628 321,163.5C 314.505,164.438 311.671,161.771 312.5,155.5C 316.68,155.138 320.68,154.138 324.5,152.5C 320.172,151.167 315.839,149.834 311.5,148.5C 308.029,150.167 306.196,149.167 306,145.5C 311.734,144.29 317.234,142.456 322.5,140C 325.047,138.684 325.713,136.851 324.5,134.5C 326.968,130.533 329.968,127.033 333.5,124C 350.257,117.707 367.591,114.54 385.5,114.5C 385.765,110.87 387.098,107.703 389.5,105C 399.124,103.842 408.791,103.176 418.5,103C 422.038,102.465 425.372,101.632 428.5,100.5 Z M 474.5,119.5 C 476.591,119.318 478.591,119.652 480.5,120.5C 481.614,121.723 481.781,123.056 481,124.5C 475.213,126.726 469.88,129.726 465,133.5C 465.082,138.612 463.249,142.779 459.5,146C 462.472,147.141 464.139,149.308 464.5,152.5C 457.92,156.803 455.586,162.803 457.5,170.5C 456.399,174.774 454.232,178.441 451,181.5C 450.503,184.146 450.336,186.813 450.5,189.5C 449.325,189.281 448.325,189.614 447.5,190.5C 448.811,191.258 449.311,192.258 449,193.5C 447.687,194.573 446.187,195.24 444.5,195.5C 439.891,194.01 435.224,193.177 430.5,193C 429.24,194.814 429.24,196.647 430.5,198.5C 432.167,199.333 433.833,200.167 435.5,201C 432.301,204.566 429.467,208.4 427,212.5C 418.16,217.113 409.66,222.279 401.5,228C 398.5,228.333 395.5,228.667 392.5,229C 389.883,239.527 385.716,249.36 380,258.5C 377.623,262.199 375.123,262.699 372.5,260C 371.207,259.51 369.873,259.343 368.5,259.5C 394.626,205.938 429.96,159.272 474.5,119.5 Z M 551.5,120.5 C 561.21,120.742 570.543,122.575 579.5,126C 574.786,129.793 569.453,131.126 563.5,130C 557.508,128.172 551.841,125.672 546.5,122.5C 548.291,121.83 549.958,121.163 551.5,120.5 Z M 663.5,123.5 C 666.646,124.31 668.313,126.31 668.5,129.5C 665.234,129.629 662.234,130.629 659.5,132.5C 656.049,130.952 655.716,128.952 658.5,126.5C 660.145,125.304 661.811,124.304 663.5,123.5 Z M 532.5,125.5 C 533.873,125.343 535.207,125.51 536.5,126C 538.797,128.774 540.964,131.608 543,134.5C 547.701,137.54 552.868,139.373 558.5,140C 560.934,143.716 561.101,147.549 559,151.5C 558.439,152.022 557.772,152.355 557,152.5C 553.592,151.103 550.092,150.603 546.5,151C 544.648,155.871 542.148,160.371 539,164.5C 536.736,161.567 533.902,159.4 530.5,158C 529.707,156.915 529.04,155.748 528.5,154.5C 530.636,151.401 530.97,148.068 529.5,144.5C 526.34,146.027 523.007,146.693 519.5,146.5C 519.146,142.77 517.813,139.437 515.5,136.5C 516.912,129.127 520.912,127.127 527.5,130.5C 528.882,128.451 530.548,126.785 532.5,125.5 Z M 761.5,129.5 C 763.857,129.337 766.19,129.503 768.5,130C 769.26,131.441 769.926,132.941 770.5,134.5C 765.087,135.435 759.753,134.935 754.5,133C 756.713,131.384 759.047,130.217 761.5,129.5 Z M 686.5,154.5 C 690.919,155.323 691.586,157.49 688.5,161C 677.582,165.929 667.748,172.429 659,180.5C 659.177,186.557 660.01,192.557 661.5,198.5C 659.143,198.663 656.81,198.497 654.5,198C 651.65,195.318 648.984,192.484 646.5,189.5C 648.371,183.055 650.537,176.721 653,170.5C 661.903,163.304 672.07,158.804 683.5,157C 684.942,156.623 685.942,155.79 686.5,154.5 Z M 771.5,160.5 C 774.467,161.477 777.3,161.81 780,161.5C 800.247,227.648 811.413,295.314 813.5,364.5C 710.948,330.24 605.614,310.74 497.5,306C 498.5,305.667 499.5,305.333 500.5,305C 503.403,298.436 508.403,294.436 515.5,293C 516.059,292.275 516.392,291.442 516.5,290.5C 515.731,286.52 515.564,282.52 516,278.5C 511.348,275.874 508.682,271.874 508,266.5C 507.533,261.663 507.033,256.83 506.5,252C 506.494,249.7 506.994,247.534 508,245.5C 510.727,242.269 513.894,239.603 517.5,237.5C 518.244,236.009 518.91,234.509 519.5,233C 521.901,232.205 524.068,231.038 526,229.5C 535.186,211.018 549.353,198.185 568.5,191C 576.44,190.469 582.774,193.469 587.5,200C 595.261,204.214 603.261,207.881 611.5,211C 613.679,214.512 616.512,217.346 620,219.5C 622.828,215.851 625.662,212.184 628.5,208.5C 631.725,208.688 633.559,210.355 634,213.5C 634.893,214.081 635.893,214.415 637,214.5C 644.193,210.992 651.693,208.159 659.5,206C 662.894,205.248 666.227,205.415 669.5,206.5C 670.452,205.467 670.452,204.3 669.5,203C 669.759,201.739 670.426,200.739 671.5,200C 677.608,199.645 683.608,198.645 689.5,197C 694.862,193.215 700.029,189.048 705,184.5C 708.668,186.57 712.502,187.07 716.5,186C 718.5,187.724 720.333,189.557 722,191.5C 723.748,189.402 725.915,187.735 728.5,186.5C 731.115,188.279 733.782,188.945 736.5,188.5C 733.108,183.644 734.108,180.144 739.5,178C 742.069,175.521 744.402,172.854 746.5,170C 754.766,166.363 763.099,163.196 771.5,160.5 Z M 251.5,173.5 C 245.342,180.158 239.009,186.658 232.5,193C 233.056,193.383 233.389,193.883 233.5,194.5C 232.668,195.329 233.001,196.162 234.5,197C 235.448,197.483 236.448,197.649 237.5,197.5C 237.5,198.833 238.167,199.5 239.5,199.5C 243.189,202.55 245.022,206.55 245,211.5C 247,214.167 249,214.167 251,211.5C 251.704,209.722 252.204,207.888 252.5,206C 243.345,194.149 244.845,183.983 257,175.5C 258.823,176.651 260.656,177.818 262.5,179C 265.167,179 267.833,179 270.5,179C 273.262,182.232 276.595,183.399 280.5,182.5C 286.953,181.85 291.62,184.35 294.5,190C 298.647,190.728 302.647,191.894 306.5,193.5C 309.324,196.962 309.991,200.796 308.5,205C 308.625,206.627 309.125,208.127 310,209.5C 315.558,211.516 320.058,214.85 323.5,219.5C 323.369,224.437 321.202,228.103 317,230.5C 314.445,228.35 311.612,228.017 308.5,229.5C 310.627,236.637 309.293,242.971 304.5,248.5C 296.042,243.936 287.376,239.936 278.5,236.5C 279,235.5 279.5,234.5 280,233.5C 283.028,231.296 285.862,228.962 288.5,226.5C 290.083,220.192 290.416,213.859 289.5,207.5C 286.5,205.667 283.5,203.833 280.5,202C 273.792,202.383 267.126,202.55 260.5,202.5C 265.663,210.283 264.663,217.45 257.5,224C 252.757,225.47 248.091,227.136 243.5,229C 236.857,239.326 229.023,248.826 220,257.5C 218.692,259.134 217.858,260.968 217.5,263C 219.44,268.139 221.773,273.139 224.5,278C 228.506,281.005 232.84,283.505 237.5,285.5C 239.622,285.623 241.789,285.623 244,285.5C 247.083,289.4 249.416,293.734 251,298.5C 252.356,299.38 253.856,299.714 255.5,299.5C 256.105,295.448 257.438,291.615 259.5,288C 259.167,287 258.833,286 258.5,285C 261.737,282.428 264.237,279.261 266,275.5C 267.158,265.876 267.824,256.209 268,246.5C 268.561,245.978 269.228,245.645 270,245.5C 277.626,248.297 285.126,251.464 292.5,255C 293.096,259.23 294.43,263.23 296.5,267C 299.167,267.667 301.833,267.667 304.5,267C 305.289,263.903 306.456,263.736 308,266.5C 310.615,270.783 313.615,274.783 317,278.5C 317.333,280.5 317.667,282.5 318,284.5C 320.671,287.837 322.837,291.504 324.5,295.5C 326.193,296.228 327.693,297.228 329,298.5C 330.666,302.663 331.499,306.997 331.5,311.5C 284.379,316.991 238.045,326.324 192.5,339.5C 189.195,292.521 198.362,248.187 220,206.5C 225.532,196.801 232.032,187.801 239.5,179.5C 240.167,179.833 240.833,180.167 241.5,180.5C 244.542,177.655 247.875,175.321 251.5,173.5 Z M 450.5,219.5 C 457.453,222.591 464.787,224.091 472.5,224C 474.954,228.029 474.621,232.029 471.5,236C 467.698,237.654 463.864,239.154 460,240.5C 456.682,237.539 453.015,234.873 449,232.5C 448.82,230.512 448.986,228.512 449.5,226.5C 448.448,226.649 447.448,226.483 446.5,226C 448.221,224.056 449.554,221.89 450.5,219.5 Z M 250.5,233.5 C 252.305,234.237 253.971,235.237 255.5,236.5C 252.85,239.651 250.016,242.651 247,245.5C 245.686,243.731 244.853,241.731 244.5,239.5C 246.188,237.146 248.188,235.146 250.5,233.5 Z M 475.5,265.5 C 477.604,265.201 479.604,265.534 481.5,266.5C 480.48,268.432 480.313,270.432 481,272.5C 487.942,278.869 491.275,286.869 491,296.5C 494.64,301.549 493.474,304.882 487.5,306.5C 482.193,305.724 476.86,305.391 471.5,305.5C 472.271,300.816 473.938,296.65 476.5,293C 476.269,290.091 475.103,287.591 473,285.5C 472.207,278.599 473.04,271.932 475.5,265.5 Z M 461.5,288.5 C 464.867,291.764 466.367,295.764 466,300.5C 463.083,302.393 459.916,302.893 456.5,302C 454.639,298.287 455.473,295.453 459,293.5C 460.094,291.922 460.928,290.255 461.5,288.5 Z M 470.5,312.5 C 587.707,314.09 701.707,333.923 812.5,372C 813.191,373.067 813.691,374.234 814,375.5C 814.667,392.167 814.667,408.833 814,425.5C 813.822,437.916 812.822,450.249 811,462.5C 808.237,458.909 804.737,456.242 800.5,454.5C 796.34,456.412 792.34,458.579 788.5,461C 786.951,462.214 785.785,463.714 785,465.5C 784.308,468.936 783.308,472.27 782,475.5C 778.013,475.649 775.68,477.649 775,481.5C 773.488,482.257 772.154,483.257 771,484.5C 768.516,491.429 766.183,498.429 764,505.5C 762.985,508.21 761.485,510.543 759.5,512.5C 757.677,511.509 756.177,510.176 755,508.5C 754.548,505.123 753.882,501.789 753,498.5C 746.576,485.317 740.41,471.984 734.5,458.5C 729.755,455.458 726.922,451.125 726,445.5C 724.954,443.91 723.787,442.41 722.5,441C 718.107,440.794 713.773,441.294 709.5,442.5C 707.004,440.047 704.338,439.88 701.5,442C 698.5,442.667 695.5,442.667 692.5,442C 689.093,436.53 685.426,431.197 681.5,426C 678.5,423.667 675.5,421.333 672.5,419C 670.086,417.115 667.419,416.448 664.5,417C 662.964,418.599 662.464,420.433 663,422.5C 665.371,425.206 668.037,427.539 671,429.5C 672.455,432.912 674.288,436.079 676.5,439C 687.396,438.395 693.063,443.562 693.5,454.5C 691.649,459.888 689.315,465.055 686.5,470C 678.833,475 671.167,480 663.5,485C 656.107,487.921 648.774,488.088 641.5,485.5C 632.811,468.767 623.144,452.767 612.5,437.5C 612.167,438.167 611.833,438.833 611.5,439.5C 612.139,442.475 612.639,445.475 613,448.5C 615.95,453.118 619.284,457.452 623,461.5C 625.485,467.771 627.818,474.105 630,480.5C 634.161,485.486 637.827,490.819 641,496.5C 642.648,498.028 644.648,498.695 647,498.5C 651.577,497.629 656.077,496.796 660.5,496C 665.216,497.494 666.716,500.661 665,505.5C 663.595,511.382 661.595,517.049 659,522.5C 651.108,535.059 642.441,547.059 633,558.5C 629.378,570.901 627.711,583.568 628,596.5C 626.625,609.629 622.292,621.629 615,632.5C 612.469,639.091 610.136,645.758 608,652.5C 605.387,655.113 602.721,657.779 600,660.5C 598.732,665.637 597.066,670.637 595,675.5C 590.62,680.211 586.62,685.211 583,690.5C 577.257,698.058 569.757,700.558 560.5,698C 557.246,697.75 554.246,696.75 551.5,695C 543.676,681.862 538.843,667.695 537,652.5C 533.201,642.937 529.701,633.27 526.5,623.5C 529.304,613.68 530.47,603.68 530,593.5C 524.74,580.054 520.906,566.22 518.5,552C 519.879,544.759 519.546,537.593 517.5,530.5C 508.649,530.718 500.982,527.885 494.5,522C 491.446,521.179 488.446,521.345 485.5,522.5C 484.363,525.47 482.363,527.636 479.5,529C 471.32,530.049 463.32,529.382 455.5,527C 439.849,515.372 431.516,499.706 430.5,480C 429.561,463.844 433.394,449.011 442,435.5C 444.186,431.802 446.853,428.468 450,425.5C 453.954,416.729 457.287,407.729 460,398.5C 463.261,395.784 466.428,392.951 469.5,390C 474.449,390.492 479.449,390.492 484.5,390C 495.811,387.726 507.144,385.559 518.5,383.5C 521.715,383.772 524.715,384.605 527.5,386C 526.424,387.726 526.257,389.559 527,391.5C 529.167,394.333 531.333,397.167 533.5,400C 539.675,403.588 546.009,406.922 552.5,410C 554.167,410.667 555.833,410.667 557.5,410C 562.551,407.069 568.051,405.569 574,405.5C 580.843,406.09 587.676,406.757 594.5,407.5C 597.179,407.064 599.845,406.564 602.5,406C 604.848,401.635 607.181,397.302 609.5,393C 608.809,391.933 608.309,390.766 608,389.5C 605.907,393.301 603.407,393.468 600.5,390C 594.5,389.667 588.5,389.333 582.5,389C 580.151,386.93 577.984,384.763 576,382.5C 574.268,377.555 574.101,372.555 575.5,367.5C 573.876,367.36 572.71,368.027 572,369.5C 571.333,374.5 571.333,379.5 572,384.5C 572.745,386.203 573.579,387.87 574.5,389.5C 574.444,390.737 573.944,391.737 573,392.5C 571.341,391.183 570.174,389.517 569.5,387.5C 566.266,386.959 563.433,385.626 561,383.5C 559.389,369.267 552.889,357.934 541.5,349.5C 540.479,350.002 540.312,350.668 541,351.5C 544.531,355.397 547.697,359.564 550.5,364C 549.584,364.374 548.75,364.874 548,365.5C 546.37,371.818 543.036,377.151 538,381.5C 537.13,380.892 536.63,380.059 536.5,379C 538.233,376.924 539.566,374.591 540.5,372C 540,370.5 539.5,369 539,367.5C 535.179,364.257 531.179,361.257 527,358.5C 525.784,360.962 525.118,363.629 525,366.5C 522.408,367.982 520.075,367.648 518,365.5C 517.667,361.833 517.333,358.167 517,354.5C 516.481,353.484 515.647,352.818 514.5,352.5C 510.084,353.18 505.751,354.18 501.5,355.5C 497.481,359.685 493.647,364.018 490,368.5C 488.07,374.196 485.236,379.363 481.5,384C 472.837,385.578 465.004,383.745 458,378.5C 455.058,369.898 456.058,361.898 461,354.5C 462.637,352.19 464.804,350.69 467.5,350C 472.729,350.439 477.896,350.272 483,349.5C 483.667,347.167 483.667,344.833 483,342.5C 480.833,340.17 479.166,337.503 478,334.5C 476.172,332.919 474.172,331.585 472,330.5C 471.333,329.5 471.333,328.5 472,327.5C 474.795,325.707 477.295,323.54 479.5,321C 482.881,319.661 486.214,318.328 489.5,317C 488.377,315.956 487.044,315.29 485.5,315C 480.167,314.667 474.833,314.333 469.5,314C 470.056,313.617 470.389,313.117 470.5,312.5 Z M 325.5,318.5 C 327.5,318.5 329.5,318.5 331.5,318.5C 331.395,322.319 330.562,325.986 329,329.5C 326.432,334.728 323.932,334.728 321.5,329.5C 323.131,325.911 324.465,322.245 325.5,318.5 Z M 302.5,321.5 C 308.965,320.611 309.798,321.944 305,325.5C 304.077,327.034 303.577,328.701 303.5,330.5C 304.985,333.786 306.152,337.12 307,340.5C 302.942,345.581 298.109,346.581 292.5,343.5C 286.973,344.854 282.473,347.854 279,352.5C 279.438,355.573 278.771,358.573 277,361.5C 271.656,364.337 266.656,367.671 262,371.5C 260.939,376.104 260.273,380.771 260,385.5C 258.667,386.167 257.333,386.833 256,387.5C 255.194,390.446 253.861,393.112 252,395.5C 245.505,399.662 240.838,405.328 238,412.5C 236.61,417.242 237.11,421.909 239.5,426.5C 238.875,429.627 237.875,432.627 236.5,435.5C 235.726,436.711 234.893,436.711 234,435.5C 231.667,431.5 229.333,427.5 227,423.5C 223.073,421.703 218.906,420.703 214.5,420.5C 212.192,420.365 210.192,421.031 208.5,422.5C 205.504,421.185 204.004,418.852 204,415.5C 198.932,394.592 195.432,373.425 193.5,352C 193.833,350.167 194.167,348.333 194.5,346.5C 230.107,335.929 266.107,327.596 302.5,321.5 Z M 336.5,328.5 C 340.168,330.239 340.501,332.572 337.5,335.5C 336.675,336.386 335.675,336.719 334.5,336.5C 334.56,333.659 335.226,330.993 336.5,328.5 Z M 183.5,349.5 C 184.5,349.5 185.5,349.5 186.5,349.5C 188.556,373.172 192.556,396.505 198.5,419.5C 195.313,420.865 191.98,421.699 188.5,422C 181.202,429.595 176.535,438.595 174.5,449C 177.268,458.55 183.601,462.884 193.5,462C 197.386,453.934 202.553,452.767 209,458.5C 210.065,463.467 211.065,468.467 212,473.5C 213.57,474.614 214.903,475.947 216,477.5C 220.056,489.672 224.889,501.505 230.5,513C 225.838,510.162 220.838,507.496 215.5,505C 212.584,500.08 208.918,495.747 204.5,492C 197.005,491.255 191.005,487.921 186.5,482C 175.221,477.91 164.221,473.243 153.5,468C 152.667,467.167 151.833,466.333 151,465.5C 149.309,458.068 147.309,450.734 145,443.5C 141.877,439.216 138.377,435.549 134.5,432.5C 135.285,436.359 135.118,440.025 134,443.5C 129.659,442.167 127.159,439.333 126.5,435C 131.255,412.148 136.088,389.314 141,366.5C 142.579,364.959 144.413,363.792 146.5,363C 158.905,358.368 171.238,353.868 183.5,349.5 Z M 130.5,370.5 C 128.309,378.573 125.809,386.573 123,394.5C 109.199,400.08 105.033,409.746 110.5,423.5C 111.833,424.5 113.167,425.5 114.5,426.5C 110.528,442.361 107.194,458.361 104.5,474.5C 102.549,473.744 100.716,473.411 99,473.5C 96.4912,469.806 94.6578,465.806 93.5,461.5C 95.9892,461.702 98.3225,461.202 100.5,460C 103.388,456.778 105.888,453.278 108,449.5C 108.628,441.98 106.962,434.98 103,428.5C 97.9026,422.564 92.0693,417.564 85.5,413.5C 83.9017,414.485 82.235,414.651 80.5,414C 78.6499,411.982 76.6499,410.149 74.5,408.5C 73.2014,411.434 73.8681,413.934 76.5,416C 81.6516,417.564 85.6516,420.564 88.5,425C 87.8333,425.667 87.1667,426.333 86.5,427C 88.7945,429.97 91.1279,432.97 93.5,436C 92.2881,437.107 92.6214,437.607 94.5,437.5C 94.3718,439.09 93.7051,440.423 92.5,441.5C 90.1667,440.5 88.5,438.833 87.5,436.5C 86.3554,437.776 86.3554,439.109 87.5,440.5C 90.3901,441.44 92.7234,443.107 94.5,445.5C 96.3195,443.872 97.6528,441.872 98.5,439.5C 100.23,441.793 101.563,444.293 102.5,447C 101.167,447.333 99.8333,447.667 98.5,448C 97.2744,449.635 95.941,451.135 94.5,452.5C 93.8333,452.167 93.1667,451.833 92.5,451.5C 91.8869,452.98 91.5536,454.313 91.5,455.5C 88.8296,450.132 86.1629,444.298 83.5,438C 82.8333,437.333 82.1667,437.333 81.5,438C 80,439.833 78.5,441.667 77,443.5C 76.2276,442.151 75.0609,441.318 73.5,441C 75.4208,437.982 75.7541,434.815 74.5,431.5C 73.914,431.709 73.414,432.043 73,432.5C 72.3605,429.888 71.1938,427.554 69.5,425.5C 69.8333,424.833 70.1667,424.167 70.5,423.5C 69.0664,420.953 67.3998,418.619 65.5,416.5C 64.359,418.421 64.1923,420.421 65,422.5C 67.5898,427.844 69.7564,433.344 71.5,439C 70.7479,441.154 70.5812,443.32 71,445.5C 75.3518,448.855 79.3518,452.521 83,456.5C 83.985,464.625 83.485,472.625 81.5,480.5C 78.8908,479.557 76.8908,477.89 75.5,475.5C 75.1667,476 74.8333,476.5 74.5,477C 76.273,479.59 77.273,482.423 77.5,485.5C 70.201,486.511 63.5343,485.011 57.5,481C 62.623,476.869 63.7897,471.703 61,465.5C 59.5889,462.422 57.2555,460.422 54,459.5C 43.365,461.436 40.0317,467.436 44,477.5C 45.6851,479.017 47.1851,480.684 48.5,482.5C 49.7678,481.572 51.1011,481.405 52.5,482C 55.3607,484.762 55.694,487.595 53.5,490.5C 50.8244,491.838 48.1578,493.171 45.5,494.5C 50.1115,497.608 54.2782,501.275 58,505.5C 58.8958,508.792 57.7291,511.125 54.5,512.5C 57.2905,514.564 59.6238,517.064 61.5,520C 61.3552,520.772 61.0219,521.439 60.5,522C 55.9999,521.834 53.8333,524 54,528.5C 52.5806,529.46 51.0806,530.293 49.5,531C 41.5643,532.53 33.5643,532.863 25.5,532C 8.77162,499.302 11.2716,468.136 33,438.5C 59.8393,407.821 92.3393,385.154 130.5,370.5 Z M 820.5,375.5 C 840.726,381.904 860.059,390.237 878.5,400.5C 862.508,430.496 845.008,459.496 826,487.5C 825.667,486.167 825.333,484.833 825,483.5C 822.061,481.573 819.228,479.573 816.5,477.5C 818.115,465.233 819.282,452.9 820,440.5C 820.5,418.836 820.667,397.169 820.5,375.5 Z M 884.5,402.5 C 892.184,406.093 899.684,410.093 907,414.5C 906.726,420.343 905.392,426.01 903,431.5C 897.188,438.946 891.022,446.113 884.5,453C 880.566,455.094 876.732,457.261 873,459.5C 872.362,460.609 871.862,461.775 871.5,463C 873.148,464.481 874.148,466.315 874.5,468.5C 871.412,476.598 869.245,484.931 868,493.5C 864.972,499.361 860.472,503.694 854.5,506.5C 850.805,500.329 845.472,496.662 838.5,495.5C 838.334,499.846 838.501,504.179 839,508.5C 842.62,513.789 846.62,518.789 851,523.5C 852.714,526.45 852.714,529.45 851,532.5C 849.951,533.517 848.784,533.684 847.5,533C 841.59,527.761 836.423,521.928 832,515.5C 831.41,510.483 831.577,505.483 832.5,500.5C 832.519,497.812 831.852,495.312 830.5,493C 850.404,464.035 868.404,433.868 884.5,402.5 Z M 253.5,438.5 C 258.248,439.004 258.581,440.338 254.5,442.5C 253.571,441.311 253.238,439.978 253.5,438.5 Z M 903.5,438.5 C 906.609,441.82 907.109,445.487 905,449.5C 902.722,446.059 902.222,442.393 903.5,438.5 Z M 243.5,439.5 C 244.598,440.601 244.765,441.934 244,443.5C 242.232,442.318 242.065,440.985 243.5,439.5 Z M 78.5,444.5 C 80.7719,445.797 81.6052,447.797 81,450.5C 79.0938,448.592 78.2605,446.592 78.5,444.5 Z M 261.5,446.5 C 264.595,447.77 266.762,449.77 268,452.5C 267.439,453.022 266.772,453.355 266,453.5C 264.51,452.683 263.01,451.85 261.5,451C 260.272,449.51 260.272,448.01 261.5,446.5 Z M 230.5,447.5 C 236.554,447.932 242.554,448.765 248.5,450C 254.863,455.014 261.863,458.68 269.5,461C 271.747,462.995 272.747,465.495 272.5,468.5C 266.471,471.101 260.971,470.101 256,465.5C 255.506,463.866 255.34,462.199 255.5,460.5C 250.075,460.622 245.408,458.788 241.5,455C 236.99,453.42 232.49,453.254 228,454.5C 226.491,453.91 224.991,453.244 223.5,452.5C 225.618,450.358 227.952,448.692 230.5,447.5 Z M 899.5,706.5 C 900.441,704.534 901.441,702.534 902.5,700.5C 902,700.167 901.5,699.833 901,699.5C 897.03,700.627 893.03,701.627 889,702.5C 886.679,701.513 885.013,699.846 884,697.5C 883.953,689.066 882.287,681.066 879,673.5C 878.11,666.086 878.443,658.753 880,651.5C 886.007,647.171 890.34,641.505 893,634.5C 894.5,633 896,631.5 897.5,630C 898.549,629.508 899.549,629.674 900.5,630.5C 903.901,623.46 909.568,619.96 917.5,620C 920.921,612.245 926.587,606.912 934.5,604C 938.174,598.83 943.174,596.33 949.5,596.5C 952.241,585.036 954.907,573.536 957.5,562C 957.355,561.228 957.022,560.561 956.5,560C 953.212,558.418 949.879,557.085 946.5,556C 947.5,555 948.5,554 949.5,553C 952.817,552.502 956.15,552.335 959.5,552.5C 964.615,519.663 966.448,486.663 965,453.5C 985.499,469.989 1001.5,489.989 1013,513.5C 1016.14,520.562 1017.8,527.896 1018,535.5C 1015.98,538.286 1014.48,537.953 1013.5,534.5C 1012.78,536.686 1012.11,538.853 1011.5,541C 1007.43,541.997 1003.43,542.164 999.5,541.5C 999.66,539.801 999.494,538.134 999,536.5C 997.214,535.223 996.048,533.556 995.5,531.5C 997.051,527.848 998.218,524.182 999,520.5C 996.25,521.291 993.417,521.291 990.5,520.5C 990.109,513.066 989.109,505.733 987.5,498.5C 986.575,497.359 985.741,497.359 985,498.5C 985.115,506.135 983.948,506.802 981.5,500.5C 979.394,499.635 979.061,500.302 980.5,502.5C 979.917,504.002 979.084,505.335 978,506.5C 974.56,537.261 966.893,566.928 955,595.5C 944.333,620.167 933.667,644.833 923,669.5C 916.641,682.913 908.807,695.246 899.5,706.5 Z M 912.5,463.5 C 915.089,464.419 917.089,466.086 918.5,468.5C 916.902,471.601 914.735,474.268 912,476.5C 909.932,472.056 910.099,467.723 912.5,463.5 Z M 284.5,467.5 C 285.675,467.281 286.675,467.614 287.5,468.5C 286.345,469.95 284.845,470.95 283,471.5C 282.5,471 282,470.5 281.5,470C 282.942,469.623 283.942,468.79 284.5,467.5 Z M 929.5,484.5 C 931.017,484.511 932.184,485.177 933,486.5C 935.286,489.104 937.119,491.937 938.5,495C 938.385,496.895 937.718,498.562 936.5,500C 933.716,500.892 931.05,502.058 928.5,503.5C 925.319,501.408 922.319,499.075 919.5,496.5C 921.091,494.367 923.091,492.701 925.5,491.5C 926.588,488.986 927.922,486.652 929.5,484.5 Z M 260.5,491.5 C 262.607,492.3 264.774,492.967 267,493.5C 268.711,493.561 270.044,492.894 271,491.5C 272.399,492.227 273.899,492.727 275.5,493C 278.64,495.067 281.474,497.567 284,500.5C 281.338,530.76 279.338,561.093 278,591.5C 260.806,563.441 245.973,534.108 233.5,503.5C 234.736,502.643 236.069,501.977 237.5,501.5C 239.63,502.467 241.63,503.634 243.5,505C 244.5,505.667 245.5,505.667 246.5,505C 250.39,501.231 254.057,497.231 257.5,493C 258.737,492.768 259.737,492.268 260.5,491.5 Z M 291.5,502.5 C 302.827,507.005 312.161,514.172 319.5,524C 323.639,526.639 327.639,529.472 331.5,532.5C 334.815,536.963 337.482,541.797 339.5,547C 347.353,548.096 354.353,551.096 360.5,556C 364.848,556.573 369.181,557.24 373.5,558C 377.641,560.489 381.975,562.489 386.5,564C 392.77,568.709 394.936,574.876 393,582.5C 392.234,589.604 389.234,595.604 384,600.5C 382.472,603.417 381.139,606.417 380,609.5C 379,610.167 378,610.833 377,611.5C 373.706,623.552 370.873,635.719 368.5,648C 363.302,650.522 358.469,653.688 354,657.5C 350.873,662.419 348.873,667.752 348,673.5C 345.173,676.329 343.173,679.663 342,683.5C 321.613,658.396 302.947,632.063 286,604.5C 284.96,570.34 286.794,536.34 291.5,502.5 Z M 769.5,506.5 C 770.978,506.238 772.311,506.571 773.5,507.5C 778.51,517.33 777.01,518.663 769,511.5C 768.616,509.803 768.782,508.137 769.5,506.5 Z M 896.5,519.5 C 900.145,521.145 902.812,523.812 904.5,527.5C 903.699,536.604 902.199,545.604 900,554.5C 898.303,556.699 896.803,559.032 895.5,561.5C 894.562,562.553 893.395,563.22 892,563.5C 886.202,561.591 880.368,559.758 874.5,558C 872.84,552.805 873.673,547.972 877,543.5C 885.164,536.832 891.664,528.832 896.5,519.5 Z M 828.5,523.5 C 834.59,526.927 838.923,531.927 841.5,538.5C 848.08,543.072 852.746,549.072 855.5,556.5C 854.863,559.107 853.696,561.44 852,563.5C 846.491,554.485 841.491,545.151 837,535.5C 834.667,531.833 831.667,528.833 828,526.5C 827.53,525.423 827.697,524.423 828.5,523.5 Z M 123.5,526.5 C 129.437,573.823 142.603,619.156 163,662.5C 163.667,664.5 163.667,666.5 163,668.5C 151.292,641.711 140.958,614.378 132,586.5C 126.319,566.898 123.485,546.898 123.5,526.5 Z M 238.5,532.5 C 250.688,557.874 264.188,582.541 279,606.5C 279.507,650.721 286.34,693.887 299.5,736C 297.99,737.351 296.99,739.018 296.5,741C 297.477,749.799 298.144,758.632 298.5,767.5C 287.375,764.969 276.375,761.969 265.5,758.5C 265.059,750.931 264.393,743.431 263.5,736C 264.573,733.343 266.24,731.177 268.5,729.5C 269.046,728.228 269.379,726.894 269.5,725.5C 267.857,722.317 266.357,718.984 265,715.5C 264.044,712.07 263.544,708.57 263.5,705C 264.126,697.661 265.626,690.494 268,683.5C 268.233,674.937 269.066,666.437 270.5,658C 271.173,638.172 264.007,621.672 249,608.5C 247.4,602.288 244.067,597.288 239,593.5C 236.843,587.848 237.009,582.348 239.5,577C 236.325,573.481 233.492,569.648 231,565.5C 230.561,561.789 230.894,558.122 232,554.5C 235.042,547.418 237.209,540.085 238.5,532.5 Z M 915.5,540.5 C 918.85,540.651 920.516,542.485 920.5,546C 918.507,551.421 918.007,556.921 919,562.5C 915.967,560.609 912.8,560.109 909.5,561C 906.868,556.453 907.035,551.953 910,547.5C 911.666,545.004 913.5,542.671 915.5,540.5 Z M 944.5,540.5 C 947.518,540.335 950.518,540.502 953.5,541C 954.308,541.308 954.975,541.808 955.5,542.5C 952.331,547.118 947.998,548.618 942.5,547C 941.692,546.692 941.025,546.192 940.5,545.5C 941.16,543.185 942.493,541.519 944.5,540.5 Z M 1018.5,543.5 C 1019.86,551.449 1019.36,559.449 1017,567.5C 1015.27,568.576 1013.44,568.743 1011.5,568C 1010.29,566.887 1010.29,565.72 1011.5,564.5C 1009.5,563.833 1007.5,563.167 1005.5,562.5C 1006.94,561.071 1007.94,559.405 1008.5,557.5C 1008.18,556.353 1007.52,555.519 1006.5,555C 1008.37,551.946 1011.03,550.446 1014.5,550.5C 1014.34,549.127 1014.51,547.793 1015,546.5C 1016.52,545.837 1017.69,544.837 1018.5,543.5 Z M 34.5,546.5 C 38.5989,548.308 42.0989,550.975 45,554.5C 45.7737,556.403 45.4404,558.07 44,559.5C 40.204,555.551 37.0374,551.217 34.5,546.5 Z M 886.5,581.5 C 877.001,580.034 867.668,577.867 858.5,575C 860.302,573.173 862.468,572.006 865,571.5C 872.453,574.366 879.619,577.699 886.5,581.5 Z M 656.5,601.5 C 659.334,609.85 660.834,618.516 661,627.5C 657.628,634.742 655.628,642.409 655,650.5C 653.378,655.267 650.545,658.934 646.5,661.5C 643.786,661.06 641.62,659.726 640,657.5C 637.125,649.36 636.959,641.193 639.5,633C 638.823,627.529 639.99,622.363 643,617.5C 649.182,613.493 653.682,608.159 656.5,601.5 Z M 286.5,619.5 C 303.206,643.726 320.539,667.559 338.5,691C 337.182,692.99 335.848,694.99 334.5,697C 330.542,698.379 326.709,699.879 323,701.5C 322.798,706.989 321.798,712.322 320,717.5C 316.584,719.792 313.084,721.959 309.5,724C 307.383,725.731 305.883,727.898 305,730.5C 293.487,694.411 287.32,657.411 286.5,619.5 Z M 168.5,674.5 C 178.353,692.365 189.353,709.532 201.5,726C 199.721,725.956 198.055,725.289 196.5,724C 193.547,720.592 190.713,717.092 188,713.5C 182.252,703.003 176.252,692.67 170,682.5C 168.748,679.986 168.248,677.32 168.5,674.5 Z M 81.5,690.5 C 81.3771,686.553 81.3771,682.886 81.5,679.5C 84.2072,681.843 86.8739,684.177 89.5,686.5C 87.3567,688.777 84.6901,690.11 81.5,690.5 Z M 977.5,689.5 C 979.975,689.747 979.975,690.413 977.5,691.5C 976.537,691.03 976.537,690.363 977.5,689.5 Z M 972.5,693.5 C 974.656,693.872 974.656,694.872 972.5,696.5C 971.913,695.767 971.913,694.767 972.5,693.5 Z M 977.5,708.5 C 978.251,707.427 979.251,707.26 980.5,708C 979.648,709.728 978.648,709.895 977.5,708.5 Z M 95.5,721.5 C 98.2617,721.886 99.2617,723.219 98.5,725.5C 96.6666,724.948 94.9999,724.115 93.5,723C 94.4158,722.722 95.0825,722.222 95.5,721.5 Z M 89.5,724.5 C 91.7099,725.455 92.0432,726.955 90.5,729C 91.3081,729.308 91.9747,729.808 92.5,730.5C 90.7045,731.141 89.2045,732.141 88,733.5C 87.4427,731.385 86.6094,729.385 85.5,727.5C 86.9014,726.479 88.2347,725.479 89.5,724.5 Z M 105.5,726.5 C 105.56,725.957 105.893,725.624 106.5,725.5C 107.59,726.727 108.924,727.56 110.5,728C 108.236,729.88 106.57,729.38 105.5,726.5 Z M 94.5,730.5 C 101.146,733.248 100.812,733.915 93.5,732.5C 93.8627,731.817 94.1961,731.15 94.5,730.5 Z M 101.5,736.5 C 101.5,737.833 101.5,739.167 101.5,740.5C 107.324,740.347 107.657,741.013 102.5,742.5C 99.1438,742.346 96.4771,741.013 94.5,738.5C 94.7093,737.914 95.0426,737.414 95.5,737C 97.4727,736.505 99.4727,736.338 101.5,736.5 Z M 205.5,738.5 C 208.378,739.37 211.045,740.703 213.5,742.5C 229.448,762.115 246.781,780.449 265.5,797.5C 242.179,781.171 222.179,761.504 205.5,738.5 Z M 107.5,751.5 C 105.788,749.104 105.288,746.438 106,743.5C 107.098,744.967 108.598,745.801 110.5,746C 109.771,748.058 108.771,749.891 107.5,751.5 Z M 107.5,751.5 C 107.489,754.001 106.822,754.168 105.5,752C 106.094,751.536 106.761,751.369 107.5,751.5 Z M 100.5,760.5 C 102.337,760.639 102.67,761.306 101.5,762.5C 100.702,762.043 100.369,761.376 100.5,760.5 Z M 117.5,763.5 C 115.472,766.719 112.805,768.886 109.5,770C 111.182,766.654 113.848,764.488 117.5,763.5 Z M 266.5,765.5 C 274.811,768.159 283.144,770.825 291.5,773.5C 290.394,777.777 290.228,782.11 291,786.5C 292.94,791.328 295.44,795.828 298.5,800C 291.239,802.548 284.406,801.715 278,797.5C 274.431,786.704 270.598,776.037 266.5,765.5 Z M 868.5,795.5 C 870.602,798.931 872.435,802.598 874,806.5C 874.749,807.635 874.583,808.635 873.5,809.5C 871.941,808.926 870.441,808.26 869,807.5C 868.383,806.551 868.549,805.718 869.5,805C 867.754,804.529 866.087,803.862 864.5,803C 864.798,800.247 866.131,797.747 868.5,795.5 Z M 265.5,797.5 C 267.404,797.738 268.738,798.738 269.5,800.5C 267.596,800.262 266.262,799.262 265.5,797.5 Z M 126.5,843.5 C 127.478,843.189 128.145,842.522 128.5,841.5C 127.05,840.15 126.383,838.484 126.5,836.5C 133.035,835.084 139.368,834.251 145.5,834C 147.569,834.324 147.902,835.158 146.5,836.5C 148.114,841.622 151.114,845.788 155.5,849C 152.628,849.315 149.795,849.815 147,850.5C 145.7,849.548 144.533,849.548 143.5,850.5C 144.025,851.192 144.692,851.692 145.5,852C 144.359,852.741 144.359,853.575 145.5,854.5C 144.047,854.06 142.881,854.726 142,856.5C 139.498,855.892 137.498,854.559 136,852.5C 135.126,855.596 132.626,857.262 128.5,857.5C 128.439,855.408 127.439,853.908 125.5,853C 127.241,849.909 127.574,846.742 126.5,843.5 Z M 208.5,837.5 C 210.414,838.185 212.414,838.685 214.5,839C 215.337,840.011 215.67,841.178 215.5,842.5C 213.058,842.354 212.391,843.187 213.5,845C 212.74,846.441 212.074,847.941 211.5,849.5C 212.833,850.833 212.833,852.167 211.5,853.5C 212.167,854.5 212.833,855.5 213.5,856.5C 212.04,858.422 210.373,859.089 208.5,858.5C 205.763,859.069 204.263,860.736 204,863.5C 202.848,860.264 202.015,856.931 201.5,853.5C 203.843,848.15 206.176,842.817 208.5,837.5 Z M 126.5,843.5 C 125.073,845.148 124.24,847.148 124,849.5C 123.879,847.273 123.046,845.44 121.5,844C 123.17,841.114 124.837,840.948 126.5,843.5 Z M 114.5,853.5 C 115.14,850.226 116.807,847.559 119.5,845.5C 120.568,847.187 120.401,848.854 119,850.5C 117.385,851.386 115.885,852.386 114.5,853.5 Z M 236.5,852.5 C 237.773,853.077 237.773,853.743 236.5,854.5C 235.537,854.03 235.537,853.363 236.5,852.5 Z M 239.5,853.5 C 240.848,854.527 241.348,855.86 241,857.5C 239.812,856.437 239.312,855.103 239.5,853.5 Z M 248.5,854.5 C 255.085,856.174 256.085,859.508 251.5,864.5C 249.673,862.5 248.006,860.333 246.5,858C 247.823,857.184 248.489,856.017 248.5,854.5 Z M 135.5,856.5 C 137.104,857.287 137.771,858.62 137.5,860.5C 133.155,860.702 132.488,859.369 135.5,856.5 Z M 357.5,858.5 C 373.138,865.817 389.138,872.317 405.5,878C 409.919,880.627 414.419,883.127 419,885.5C 419.419,884.328 420.085,883.328 421,882.5C 437.509,887.836 454.343,892.002 471.5,895C 470.643,895.689 469.977,896.522 469.5,897.5C 471.316,899.817 473.316,901.984 475.5,904C 469.807,903.53 464.14,902.53 458.5,901C 443.255,897.106 428.255,892.439 413.5,887C 394.336,878.252 375.669,868.752 357.5,858.5 Z M 134.5,865.5 C 134.272,863.645 134.939,862.812 136.5,863C 135.934,863.995 135.267,864.828 134.5,865.5 Z M 129.5,872.5 C 130.995,872.415 131.995,873.081 132.5,874.5C 130.604,875.639 129.604,874.973 129.5,872.5 Z M 478.5,896.5 C 538.958,904.718 598.624,901.218 657.5,886C 647.448,896.845 636.115,906.012 623.5,913.5C 620.684,912.982 618.018,912.149 615.5,911C 616.5,910 617.5,909 618.5,908C 615.081,908.742 611.747,909.075 608.5,909C 609.5,909.833 610.5,910.667 611.5,911.5C 610.184,914.339 608.684,917.006 607,919.5C 606.055,919.095 605.388,918.428 605,917.5C 604.503,914.854 604.336,912.187 604.5,909.5C 567.107,911.368 529.774,910.535 492.5,907C 486.57,905.243 481.903,901.743 478.5,896.5 Z M 259.5,889.5 C 260.568,888.566 261.901,888.232 263.5,888.5C 263.105,891.686 262.105,894.686 260.5,897.5C 261.274,898.711 262.107,898.711 263,897.5C 263.478,902.809 266.311,904.809 271.5,903.5C 271.719,904.675 271.386,905.675 270.5,906.5C 268.382,905.054 266.049,904.387 263.5,904.5C 263.351,905.552 263.517,906.552 264,907.5C 266.192,908.399 268.358,909.399 270.5,910.5C 271.833,911.167 271.833,911.833 270.5,912.5C 259.887,907.573 248.887,903.74 237.5,901C 236.833,900.333 236.167,899.667 235.5,899C 238.837,896.329 242.504,894.163 246.5,892.5C 247.36,894.931 249.027,896.264 251.5,896.5C 251.343,895.127 251.51,893.793 252,892.5C 255.456,893.548 256.956,895.881 256.5,899.5C 257.5,899.5 258.5,899.5 259.5,899.5C 259.342,896.639 260.008,893.972 261.5,891.5C 261.253,890.287 260.586,889.62 259.5,889.5 Z M 282.5,920.5 C 279.91,919.872 277.577,918.705 275.5,917C 278.971,915.4 281.304,916.567 282.5,920.5 Z M 632.5,915.5 C 634.975,915.747 634.975,916.413 632.5,917.5C 631.537,917.03 631.537,916.363 632.5,915.5 Z M 461.5,941.5 C 461.5,942.5 461.5,943.5 461.5,944.5C 458.746,944.216 456.08,943.549 453.5,942.5C 455.559,941.433 457.392,940.1 459,938.5C 459.236,940.119 460.069,941.119 461.5,941.5 Z M 632.5,940.5 C 636.069,940.951 639.069,942.451 641.5,945C 639.333,948.5 636.5,951.333 633,953.5C 630.92,951.007 629.086,948.341 627.5,945.5C 630.182,944.818 631.848,943.152 632.5,940.5 Z M 450.5,942.5 C 453.001,942.511 453.168,943.178 451,944.5C 450.536,943.906 450.369,943.239 450.5,942.5 Z M 365.5,947.5 C 368.838,948.193 369.338,949.86 367,952.5C 365.991,950.975 365.491,949.308 365.5,947.5 Z M 416.5,981.5 C 420.123,982.411 420.29,983.745 417,985.5C 415.745,984.789 414.579,983.956 413.5,983C 414.737,982.768 415.737,982.268 416.5,981.5 Z M 623.5,1026.5 C 624.773,1027.08 624.773,1027.74 623.5,1028.5C 622.537,1028.03 622.537,1027.36 623.5,1026.5 Z M 616.5,1029.5 C 617.66,1030.61 618.993,1031.61 620.5,1032.5C 617.281,1035.26 614.281,1038.26 611.5,1041.5C 609.656,1039.16 607.656,1036.99 605.5,1035C 609.203,1033.02 612.869,1031.18 616.5,1029.5 Z M 517.5,1038.5 C 520.861,1039.2 521.194,1040.54 518.5,1042.5C 516.824,1041.27 516.491,1039.94 517.5,1038.5 Z M 633.5,1048.5 C 629.523,1047.71 628.69,1045.71 631,1042.5C 632.122,1044.41 632.955,1046.41 633.5,1048.5 Z"/></g>
<g><path style="opacity:0.314" fill="#000000" d="M 244.5,127.5 C 247.001,127.511 247.168,128.178 245,129.5C 244.536,128.906 244.369,128.239 244.5,127.5 Z"/></g>
<g><path style="opacity:0.251" fill="#000000" d="M 241.5,131.5 C 242.251,130.427 243.251,130.26 244.5,131C 243.552,131.483 242.552,131.649 241.5,131.5 Z"/></g>
<g><path style="opacity:0.376" fill="#000000" d="M 272.5,144.5 C 273.251,143.427 274.251,143.26 275.5,144C 274.648,145.728 273.648,145.895 272.5,144.5 Z"/></g>
<g><path style="opacity:0.566" fill="#000000" d="M 259.5,162.5 C 262.088,160.92 264.422,158.92 266.5,156.5C 266.833,156.833 267.167,157.167 267.5,157.5C 265.752,160.617 263.919,163.617 262,166.5C 260.405,165.644 259.572,164.311 259.5,162.5 Z"/></g>
<g><path style="opacity:0.537" fill="#000000" d="M 233.5,194.5 C 234.609,194.557 235.609,194.89 236.5,195.5C 236.5,196.167 236.833,196.5 237.5,196.5C 237.5,196.833 237.5,197.167 237.5,197.5C 236.448,197.649 235.448,197.483 234.5,197C 233.001,196.162 232.668,195.329 233.5,194.5 Z"/></g>
<g><path style="opacity:0.11" fill="#000000" d="M 237.5,197.5 C 238.833,197.5 239.5,198.167 239.5,199.5C 239.5,198.167 238.833,197.5 237.5,197.5 Z"/></g>
<g><path style="opacity:0.981" fill="#000000" d="M 1217.5,219.5 C 1220.85,219.335 1224.18,219.502 1227.5,220C 1254.7,246.864 1282.2,273.364 1310,299.5C 1310.33,274.167 1310.67,248.833 1311,223.5C 1311.5,223 1312,222.5 1312.5,222C 1322.88,221.191 1333.21,221.358 1343.5,222.5C 1344.83,272.401 1344.83,322.234 1343.5,372C 1340.2,373.879 1336.87,373.879 1333.5,372C 1305.64,344.472 1278.14,316.639 1251,288.5C 1250.67,315.5 1250.33,342.5 1250,369.5C 1249.25,370.126 1248.42,370.626 1247.5,371C 1238.17,371.667 1228.83,371.667 1219.5,371C 1218.58,370.626 1217.75,370.126 1217,369.5C 1216.17,319.429 1216.34,269.429 1217.5,219.5 Z"/></g>
<g><path style="opacity:0.981" fill="#000000" d="M 1756.5,219.5 C 1759.85,219.335 1763.18,219.502 1766.5,220C 1793.7,246.864 1821.2,273.364 1849,299.5C 1849.33,274.167 1849.67,248.833 1850,223.5C 1850.5,223 1851,222.5 1851.5,222C 1861.88,221.191 1872.21,221.358 1882.5,222.5C 1883.83,272.401 1883.83,322.234 1882.5,372C 1879.2,373.879 1875.87,373.879 1872.5,372C 1844.64,344.472 1817.14,316.639 1790,288.5C 1789.67,315.5 1789.33,342.5 1789,369.5C 1788.25,370.126 1787.42,370.626 1786.5,371C 1777.17,371.667 1767.83,371.667 1758.5,371C 1757.58,370.626 1756.75,370.126 1756,369.5C 1755.17,319.429 1755.34,269.429 1756.5,219.5 Z"/></g>
<g><path style="opacity:0.973" fill="#000000" d="M 1968.5,219.5 C 1974.89,218.373 1978.72,221.04 1980,227.5C 2001,272.833 2022,318.167 2043,363.5C 2044.21,366.834 2043.38,369.334 2040.5,371C 2031.83,371.667 2023.17,371.667 2014.5,371C 2012.58,370.64 2010.91,369.806 2009.5,368.5C 2006.23,362.288 2003.23,355.954 2000.5,349.5C 1981.5,348.167 1962.5,348.167 1943.5,349.5C 1940.74,356.859 1937.07,363.692 1932.5,370C 1922.89,371.557 1913.23,371.891 1903.5,371C 1902.07,370.535 1900.9,369.701 1900,368.5C 1900.02,365.756 1900.69,363.089 1902,360.5C 1923.7,313.222 1945.86,266.222 1968.5,219.5 Z M 1971.5,286.5 C 1976.93,297.196 1982.26,308.029 1987.5,319C 1977.17,319.667 1966.83,319.667 1956.5,319C 1961.79,308.281 1966.79,297.448 1971.5,286.5 Z"/></g>
<g><path style="opacity:0.973" fill="#000000" d="M 2285.5,219.5 C 2322.74,216.694 2349.91,231.694 2367,264.5C 2379.48,297.741 2373.65,327.241 2349.5,353C 2324.26,373.808 2296.26,378.474 2265.5,367C 2229.2,347.904 2214.7,318.07 2222,277.5C 2231.31,245.021 2252.47,225.688 2285.5,219.5 Z M 2289.5,254.5 C 2321.82,254.317 2337.98,270.317 2338,302.5C 2330.24,330.597 2312.07,341.763 2283.5,336C 2258.89,324.952 2250.39,306.452 2258,280.5C 2264.52,266.801 2275.02,258.135 2289.5,254.5 Z"/></g>
<g><path style="opacity:0.976" fill="#000000" d="M 2399.5,219.5 C 2402.85,219.335 2406.18,219.502 2409.5,220C 2436.7,246.864 2464.2,273.364 2492,299.5C 2492.33,274.167 2492.67,248.833 2493,223.5C 2493.5,223 2494,222.5 2494.5,222C 2504.5,221.333 2514.5,221.333 2524.5,222C 2525,222.5 2525.5,223 2526,223.5C 2526.83,273.071 2526.66,322.571 2525.5,372C 2522.17,374 2518.83,374 2515.5,372C 2488,344.5 2460.5,317 2433,289.5C 2432.67,315.833 2432.33,342.167 2432,368.5C 2431.23,369.849 2430.06,370.682 2428.5,371C 2419.5,371.667 2410.5,371.667 2401.5,371C 2400.58,370.626 2399.75,370.126 2399,369.5C 2398.3,320.499 2397.97,271.499 2398,222.5C 2398.51,221.473 2399.01,220.473 2399.5,219.5 Z"/></g>
<g><path style="opacity:0.973" fill="#000000" d="M 2611.5,219.5 C 2613.86,219.337 2616.19,219.503 2618.5,220C 2641.39,267.606 2663.89,315.439 2686,363.5C 2687.21,366.834 2686.38,369.334 2683.5,371C 2673.44,371.895 2663.44,371.562 2653.5,370C 2649.78,363.397 2646.45,356.564 2643.5,349.5C 2624.51,348.334 2605.51,348.167 2586.5,349C 2583.54,355.092 2580.7,361.258 2578,367.5C 2577.17,368.333 2576.33,369.167 2575.5,370C 2565.89,371.557 2556.23,371.891 2546.5,371C 2543.11,370.05 2541.94,367.883 2543,364.5C 2565.35,315.803 2588.18,267.47 2611.5,219.5 Z M 2614.5,286.5 C 2619.86,296.894 2624.86,307.56 2629.5,318.5C 2619.52,319.666 2609.52,319.832 2599.5,319C 2604.37,308.096 2609.37,297.263 2614.5,286.5 Z"/></g>
<g><path style="opacity:0.993" fill="#000000" d="M 1148.5,221.5 C 1158.51,221.334 1168.51,221.5 1178.5,222C 1179,222.5 1179.5,223 1180,223.5C 1180.67,272.167 1180.67,320.833 1180,369.5C 1179.25,370.126 1178.42,370.626 1177.5,371C 1168.17,371.667 1158.83,371.667 1149.5,371C 1148.58,370.626 1147.75,370.126 1147,369.5C 1146.33,320.833 1146.33,272.167 1147,223.5C 1147.72,222.956 1148.22,222.289 1148.5,221.5 Z"/></g>
<g><path style="opacity:0.969" fill="#000000" d="M 1367.5,221.5 C 1400.5,221.333 1433.5,221.5 1466.5,222C 1467,222.5 1467.5,223 1468,223.5C 1468.67,232.833 1468.67,242.167 1468,251.5C 1467.5,252 1467,252.5 1466.5,253C 1455.84,253.5 1445.17,253.667 1434.5,253.5C 1434.67,291.501 1434.5,329.501 1434,367.5C 1433.5,369.333 1432.33,370.5 1430.5,371C 1421.5,371.667 1412.5,371.667 1403.5,371C 1401.94,370.682 1400.77,369.849 1400,368.5C 1399.5,330.168 1399.33,291.835 1399.5,253.5C 1388.49,253.667 1377.49,253.5 1366.5,253C 1365.85,247.913 1365.51,242.746 1365.5,237.5C 1365.55,231.921 1366.22,226.588 1367.5,221.5 Z"/></g>
<g><path style="opacity:0.968" fill="#000000" d="M 1490.5,221.5 C 1521.5,221.333 1552.5,221.5 1583.5,222C 1584,222.5 1584.5,223 1585,223.5C 1585.67,232.833 1585.67,242.167 1585,251.5C 1584.5,252 1584,252.5 1583.5,253C 1563.17,253.5 1542.84,253.667 1522.5,253.5C 1522.5,261.833 1522.5,270.167 1522.5,278.5C 1538.84,278.333 1555.17,278.5 1571.5,279C 1572.93,279.465 1574.1,280.299 1575,281.5C 1575.67,290.5 1575.67,299.5 1575,308.5C 1574.5,309.667 1573.67,310.5 1572.5,311C 1555.84,311.5 1539.17,311.667 1522.5,311.5C 1522.5,320.5 1522.5,329.5 1522.5,338.5C 1542.5,338.333 1562.5,338.5 1582.5,339C 1583.42,339.374 1584.25,339.874 1585,340.5C 1585.67,350.167 1585.67,359.833 1585,369.5C 1584.25,370.126 1583.42,370.626 1582.5,371C 1552.5,371.667 1522.5,371.667 1492.5,371C 1491.07,370.535 1489.9,369.701 1489,368.5C 1488.33,320.167 1488.33,271.833 1489,223.5C 1489.72,222.956 1490.22,222.289 1490.5,221.5 Z"/></g>
<g><path style="opacity:0.978" fill="#000000" d="M 1615.5,221.5 C 1641.54,221.046 1667.54,221.546 1693.5,223C 1711.54,228.375 1722.71,240.209 1727,258.5C 1730.22,283.911 1720.06,301.411 1696.5,311C 1707.29,329.237 1717.29,347.904 1726.5,367C 1726.24,368.261 1725.57,369.261 1724.5,370C 1718.94,371.121 1713.27,371.621 1707.5,371.5C 1701.73,371.621 1696.06,371.121 1690.5,370C 1680.62,351.735 1671.12,333.235 1662,314.5C 1657.26,313.531 1652.43,313.197 1647.5,313.5C 1647.67,331.836 1647.5,350.17 1647,368.5C 1646.1,369.701 1644.93,370.535 1643.5,371C 1634.5,371.667 1625.5,371.667 1616.5,371C 1615.58,370.626 1614.75,370.126 1614,369.5C 1613.83,345 1613.67,320.5 1613.5,296C 1613.51,270.952 1614.18,246.118 1615.5,221.5 Z M 1647.5,252.5 C 1659.58,252.062 1671.58,252.562 1683.5,254C 1693.72,259.295 1696.22,267.128 1691,277.5C 1689.24,280.473 1686.74,282.64 1683.5,284C 1671.56,285.415 1659.56,285.915 1647.5,285.5C 1647.5,274.5 1647.5,263.5 1647.5,252.5 Z"/></g>
<g><path style="opacity:0.984" fill="#000000" d="M 2038.5,221.5 C 2071.83,221.333 2105.17,221.5 2138.5,222C 2139,222.5 2139.5,223 2140,223.5C 2140.67,232.833 2140.67,242.167 2140,251.5C 2139.5,252 2139,252.5 2138.5,253C 2127.51,253.5 2116.51,253.667 2105.5,253.5C 2105.67,292.168 2105.5,330.835 2105,369.5C 2104.25,370.126 2103.42,370.626 2102.5,371C 2093.5,371.667 2084.5,371.667 2075.5,371C 2073.94,370.682 2072.77,369.849 2072,368.5C 2071.5,330.168 2071.33,291.835 2071.5,253.5C 2060.49,253.667 2049.49,253.5 2038.5,253C 2037.18,242.5 2037.18,232 2038.5,221.5 Z"/></g>
<g><path style="opacity:0.959" fill="#000000" d="M 2162.5,221.5 C 2172.84,221.334 2183.17,221.5 2193.5,222C 2194.13,222.75 2194.63,223.584 2195,224.5C 2195.67,272.167 2195.67,319.833 2195,367.5C 2194.5,369.333 2193.33,370.5 2191.5,371C 2182.5,371.667 2173.5,371.667 2164.5,371C 2163.07,370.535 2161.9,369.701 2161,368.5C 2160.33,320.167 2160.33,271.833 2161,223.5C 2161.72,222.956 2162.22,222.289 2162.5,221.5 Z"/></g>
<g><path style="opacity:0.955" fill="#000000" d="M 2791.5,340.5 C 2791.5,350.167 2791.5,359.833 2791.5,369.5C 2790.53,369.987 2789.53,370.487 2788.5,371C 2761.17,371.667 2733.83,371.667 2706.5,371C 2705.07,370.535 2703.9,369.701 2703,368.5C 2702.33,320.5 2702.33,272.5 2703,224.5C 2703.37,223.584 2703.87,222.75 2704.5,222C 2714.83,221.333 2725.17,221.333 2735.5,222C 2736.13,222.75 2736.63,223.584 2737,224.5C 2737.5,262.499 2737.67,300.499 2737.5,338.5C 2754.5,338.333 2771.5,338.5 2788.5,339C 2789.53,339.513 2790.53,340.013 2791.5,340.5 Z"/></g>
<g><path style="opacity:0.594" fill="#000000" d="M 185.5,242.5 C 191.359,242.681 191.359,244.348 185.5,247.5C 184.334,245.833 184.334,244.166 185.5,242.5 Z"/></g>
<g><path style="opacity:0.865" fill="#000000" d="M 980.5,457.5 C 979.833,457.5 979.5,457.167 979.5,456.5C 978.566,448.889 978.233,441.222 978.5,433.5C 991.749,436.339 994.916,443.673 988,455.5C 985.916,458.145 983.416,458.811 980.5,457.5 Z"/></g>
<g><path style="opacity:0.983" fill="#000000" d="M 1668.5,468.5 C 1705.55,466.686 1738.72,477.019 1768,499.5C 1770,503.5 1770,507.5 1768,511.5C 1760.75,521.66 1753.75,531.994 1747,542.5C 1743.17,546.128 1738.67,547.295 1733.5,546C 1718.63,534.565 1701.96,526.899 1683.5,523C 1670.8,521 1661.3,525.5 1655,536.5C 1652.79,546.873 1655.96,555.373 1664.5,562C 1668.5,564.667 1672.5,567.333 1676.5,570C 1693.41,577.119 1710.07,584.786 1726.5,593C 1743.24,602.403 1756.74,615.237 1767,631.5C 1783.67,669.976 1776.17,702.809 1744.5,730C 1725.75,742.914 1704.92,749.414 1682,749.5C 1652.25,749.607 1625.08,741.441 1600.5,725C 1598.3,722.46 1595.8,720.293 1593,718.5C 1589.76,714.238 1589.76,709.904 1593,705.5C 1598.33,696.167 1603.67,686.833 1609,677.5C 1612.28,671.891 1617.11,670.058 1623.5,672C 1640.38,684.357 1659.22,691.857 1680,694.5C 1700.14,692.723 1708.47,682.056 1705,662.5C 1700.55,653.055 1693.72,645.888 1684.5,641C 1667.32,634.074 1650.65,626.074 1634.5,617C 1618.57,607.069 1606.07,593.903 1597,577.5C 1583.18,541.287 1591.01,510.787 1620.5,486C 1635.17,476.278 1651.17,470.444 1668.5,468.5 Z"/></g>
<g><path style="opacity:0.985" fill="#000000" d="M 2456.5,468.5 C 2465.94,466.469 2471.77,470.136 2474,479.5C 2514.58,565.486 2554.74,651.653 2594.5,738C 2594.07,740.316 2593.07,742.316 2591.5,744C 2573.9,745.625 2556.23,745.959 2538.5,745C 2535.45,744.394 2532.95,742.894 2531,740.5C 2525.5,728.833 2520,717.167 2514.5,705.5C 2479.17,704.167 2443.83,704.167 2408.5,705.5C 2403.39,716.048 2398.56,726.714 2394,737.5C 2391.69,741.58 2388.19,744.08 2383.5,745C 2367.17,745.667 2350.83,745.667 2334.5,745C 2330.73,744.232 2328.73,741.898 2328.5,738C 2369.59,648.986 2411.09,560.153 2453,471.5C 2454.15,470.364 2455.31,469.364 2456.5,468.5 Z M 2460.5,589.5 C 2463.48,593.443 2465.98,597.777 2468,602.5C 2475.37,618.742 2482.87,634.909 2490.5,651C 2471.17,651.667 2451.83,651.667 2432.5,651C 2441.97,630.553 2451.31,610.053 2460.5,589.5 Z"/></g>
<g><path style="opacity:0.987" fill="#000000" d="M 1161.5,472.5 C 1218.17,472.333 1274.83,472.5 1331.5,473C 1332.67,474.167 1333.83,475.333 1335,476.5C 1335.67,493.167 1335.67,509.833 1335,526.5C 1334.17,527.333 1333.33,528.167 1332.5,529C 1294.92,530.488 1257.25,530.988 1219.5,530.5C 1219.5,548.833 1219.5,567.167 1219.5,585.5C 1250.17,585.333 1280.84,585.5 1311.5,586C 1313.67,586.833 1315.17,588.333 1316,590.5C 1316.67,606.5 1316.67,622.5 1316,638.5C 1315.17,640.667 1313.67,642.167 1311.5,643C 1280.84,643.5 1250.17,643.667 1219.5,643.5C 1219.99,676.587 1219.49,709.587 1218,742.5C 1216.83,743.893 1215.33,744.727 1213.5,745C 1196.83,745.667 1180.17,745.667 1163.5,745C 1160.77,744.602 1158.93,743.102 1158,740.5C 1157.33,652.833 1157.33,565.167 1158,477.5C 1159,475.677 1160.16,474.01 1161.5,472.5 Z"/></g>
<g><path style="opacity:0.987" fill="#000000" d="M 1382.5,472.5 C 1439.17,472.333 1495.83,472.5 1552.5,473C 1554.05,474.214 1555.22,475.714 1556,477.5C 1556.67,493.5 1556.67,509.5 1556,525.5C 1555.53,526.931 1554.7,528.097 1553.5,529C 1515.92,530.488 1478.25,530.988 1440.5,530.5C 1440.5,546.167 1440.5,561.833 1440.5,577.5C 1471.17,577.333 1501.84,577.5 1532.5,578C 1534.73,579.227 1536.23,581.061 1537,583.5C 1537.67,598.833 1537.67,614.167 1537,629.5C 1536.6,632.232 1535.1,634.065 1532.5,635C 1501.84,635.5 1471.17,635.667 1440.5,635.5C 1440.5,652.833 1440.5,670.167 1440.5,687.5C 1477.83,687.333 1515.17,687.5 1552.5,688C 1554.05,689.214 1555.22,690.714 1556,692.5C 1556.67,708.5 1556.67,724.5 1556,740.5C 1555.07,743.102 1553.23,744.602 1550.5,745C 1494.83,745.667 1439.17,745.667 1383.5,745C 1381.71,744.215 1380.21,743.049 1379,741.5C 1378.33,653.167 1378.33,564.833 1379,476.5C 1379.69,474.65 1380.86,473.316 1382.5,472.5 Z"/></g>
<g><path style="opacity:0.985" fill="#000000" d="M 1798.5,472.5 C 1859.17,472.333 1919.83,472.5 1980.5,473C 1982.05,474.214 1983.22,475.714 1984,477.5C 1984.67,493.5 1984.67,509.5 1984,525.5C 1983.53,526.931 1982.7,528.097 1981.5,529C 1961.26,530.476 1940.93,530.976 1920.5,530.5C 1920.67,600.834 1920.5,671.167 1920,741.5C 1918.79,743.049 1917.29,744.215 1915.5,745C 1898.17,745.667 1880.83,745.667 1863.5,745C 1860.57,743.74 1858.74,741.573 1858,738.5C 1857.5,669.167 1857.33,599.834 1857.5,530.5C 1837.41,530.976 1817.41,530.476 1797.5,529C 1796.3,528.097 1795.47,526.931 1795,525.5C 1794.33,509.167 1794.33,492.833 1795,476.5C 1796.38,475.295 1797.54,473.962 1798.5,472.5 Z"/></g>
<g><path style="opacity:0.981" fill="#000000" d="M 2027.5,472.5 C 2045.5,472.333 2063.5,472.5 2081.5,473C 2083.05,474.214 2084.22,475.714 2085,477.5C 2085.67,565.167 2085.67,652.833 2085,740.5C 2084.07,743.102 2082.23,744.602 2079.5,745C 2062.5,745.667 2045.5,745.667 2028.5,745C 2025.94,744.315 2024.11,742.815 2023,740.5C 2022.33,652.833 2022.33,565.167 2023,477.5C 2024.02,475.313 2025.52,473.646 2027.5,472.5 Z"/></g>
<g><path style="opacity:0.983" fill="#000000" d="M 2119.5,472.5 C 2139.5,472.333 2159.5,472.5 2179.5,473C 2180.5,473.833 2181.5,474.667 2182.5,475.5C 2204.24,523.317 2226.24,570.984 2248.5,618.5C 2270.92,570.65 2293.09,522.65 2315,474.5C 2315.75,473.874 2316.58,473.374 2317.5,473C 2337.5,472.333 2357.5,472.333 2377.5,473C 2382.23,476.979 2382.73,481.479 2379,486.5C 2338.39,572.046 2298.06,657.713 2258,743.5C 2254.94,748.635 2250.44,750.468 2244.5,749C 2242.15,748.654 2240.32,747.487 2239,745.5C 2197.56,656.948 2156.39,568.282 2115.5,479.5C 2116.07,476.687 2117.4,474.354 2119.5,472.5 Z"/></g>
<g><path style="opacity:0.99" fill="#000000" d="M 2628.5,472.5 C 2646.5,472.333 2664.5,472.5 2682.5,473C 2684.33,473.5 2685.5,474.667 2686,476.5C 2686.5,546.833 2686.67,617.166 2686.5,687.5C 2718.84,687.333 2751.17,687.5 2783.5,688C 2785.33,688.5 2786.5,689.667 2787,691.5C 2787.67,708.167 2787.67,724.833 2787,741.5C 2785.79,743.049 2784.29,744.215 2782.5,745C 2731.5,745.667 2680.5,745.667 2629.5,745C 2628.07,744.535 2626.9,743.701 2626,742.5C 2624.34,653.915 2624.01,565.248 2625,476.5C 2626.38,475.295 2627.54,473.962 2628.5,472.5 Z"/></g>
<g><path style="opacity:0.616" fill="#000000" d="M 1099.5,681.5 C 1101.1,682.287 1101.77,683.62 1101.5,685.5C 1097.44,685.384 1096.77,684.051 1099.5,681.5 Z"/></g>
<g><path style="opacity:0.457" fill="#000000" d="M 835.5,788.5 C 836.239,788.369 836.906,788.536 837.5,789C 836.809,790.067 836.309,791.234 836,792.5C 834.232,791.318 834.065,789.985 835.5,788.5 Z"/></g>
<g><path style="opacity:0.314" fill="#000000" d="M 832.5,791.5 C 835.134,792.658 834.967,793.658 832,794.5C 831.53,793.423 831.697,792.423 832.5,791.5 Z"/></g>
<g><path style="opacity:0.558" fill="#000000" d="M 787.5,828.5 C 788.239,828.369 788.906,828.536 789.5,829C 788.663,830.011 788.33,831.178 788.5,832.5C 787.325,832.719 786.325,832.386 785.5,831.5C 786.193,830.482 786.859,829.482 787.5,828.5 Z"/></g>
<g><path style="opacity:0.314" fill="#000000" d="M 764.5,847.5 C 765.077,846.227 765.743,846.227 766.5,847.5C 766.03,848.463 765.363,848.463 764.5,847.5 Z"/></g>
<g><path style="opacity:0.927" fill="#000000" d="M 715.5,872.5 C 718.284,874.268 720.284,876.768 721.5,880C 720.951,882.91 721.617,885.743 723.5,888.5C 721.985,890.547 721.151,892.881 721,895.5C 716.981,899.531 712.314,900.864 707,899.5C 705.763,904.746 702.596,906.58 697.5,905C 693.474,903.641 690.807,900.974 689.5,897C 684.777,895.804 680.443,893.804 676.5,891C 689.954,885.688 702.954,879.521 715.5,872.5 Z"/></g>
<g><path style="opacity:0.282" fill="#000000" d="M 629.5,904.5 C 630.713,905.497 630.546,906.497 629,907.5C 628.53,906.423 628.697,905.423 629.5,904.5 Z"/></g>
<g><path style="opacity:0.326" fill="#000000" d="M 624.5,905.5 C 625.688,907.496 625.021,908.329 622.5,908C 623.381,907.292 624.047,906.458 624.5,905.5 Z"/></g>
</svg>
