<svg width="392" height="391" viewBox="0 0 392 391" fill="none" xmlns="http://www.w3.org/2000/svg">
<path d="M366.832 195.501C366.832 289.85 290.347 366.334 195.999 366.334C101.651 366.334 25.168 289.85 25.168 195.501C25.168 101.153 101.651 24.668 195.999 24.668C290.347 24.668 366.832 101.153 366.832 195.501Z" fill="#F5F5F5"/>
<path d="M196 390.751C88.3391 390.751 0.750488 303.162 0.750488 195.5C0.750488 87.8386 88.3391 0.25 196 0.25C303.662 0.25 391.252 87.8386 391.252 195.5C391.252 303.162 303.662 390.751 196 390.751ZM196 2.38514C89.5166 2.38514 2.88562 89.0161 2.88562 195.5C2.88562 301.983 89.5166 388.616 196 388.616C302.484 388.616 389.117 301.983 389.117 195.5C389.117 89.0161 302.484 2.38514 196 2.38514Z" fill="#F5F5F5"/>
<path d="M245.538 192.624V198.375C229.453 198.375 216.379 211.45 216.379 227.535H210.628C210.628 215.361 216.897 204.626 226.367 198.375H146.463V192.624H226.367C216.897 186.375 210.628 175.639 210.628 163.465H216.379C216.379 179.55 229.453 192.624 245.538 192.624Z" fill="#002859"/>
<path d="M155.525 62.8824L158.069 61.8672L159.912 83.6039L157.589 84.5306L146.549 71.2394L147.687 88.4795L145.364 89.4062L131.741 72.3688L134.312 71.3429L145.003 84.9661L143.787 67.5317L146.056 66.6275L157.15 80.0575L155.525 62.8824Z" fill="#002859"/>
<path d="M180.409 79.0572L172.9 72.292L168.712 73.0606L170.157 80.9382L167.551 81.4165L163.789 60.916L171.697 59.4652C176.06 58.6645 179.243 60.5018 179.98 64.5148C180.582 67.7943 178.881 70.4067 175.774 71.613L183.601 78.4711L180.409 79.0572ZM166.837 62.8397L168.287 70.7462L173.383 69.811C176.34 69.2686 177.694 67.568 177.227 65.0197C176.748 62.4127 174.861 61.3676 171.931 61.9046L166.837 62.8397Z" fill="#002859"/>
<path d="M186.962 57.5977L188.53 78.3832L185.858 78.586L184.29 57.8005L186.962 57.5977Z" fill="#002859"/>
<path d="M207.291 57.5071L207.237 59.9785L200.509 59.8344L200.113 78.2019L197.463 78.1453L197.86 59.7757L191.131 59.6316L191.184 57.1602L207.291 57.5071Z" fill="#002859"/>
<path d="M225.712 62.7441L214.453 60.9015L213.381 67.4575L223.463 69.1069L223.074 71.4886L212.991 69.8381L211.875 76.6578L223.133 78.5004L222.739 80.9109L208.835 78.636L212.203 58.0586L226.107 60.3336L225.712 62.7441Z" fill="#002859"/>
<path d="M254.201 69.7346L249.702 81.2793C247.615 86.6364 243.205 88.1117 238.737 86.3716C234.269 84.6304 231.991 80.5491 234.078 75.1931L238.576 63.6484L241.102 64.6317L236.657 76.0365C235.079 80.0879 236.564 82.8412 239.645 84.0411C242.698 85.2304 245.679 84.2183 247.258 80.1669L251.702 68.7632L254.201 69.7346Z" fill="#002859"/>
<path d="M251.483 84.6116L254.053 85.2927C253.111 88.1932 254.055 90.8184 256.88 92.4763C259.551 94.0446 261.89 94.0008 262.884 92.3055C263.745 90.8419 263.141 89.2811 260.691 86.8065L258.716 84.8187C256.142 82.2031 255.489 79.6089 256.907 77.1952C258.625 74.2668 262.398 73.7202 266.149 75.9205C269.796 78.061 271.268 81.3768 269.941 85.2254L267.493 84.5144C268.461 81.6298 267.286 79.4541 264.949 78.0823C262.586 76.6955 260.375 76.814 259.426 78.4325C258.491 80.0242 259.199 81.4067 261.035 83.2782L262.984 85.2521C266.033 88.3534 266.77 91.0992 265.368 93.4884C263.574 96.5438 259.764 97.0348 255.629 94.6072C251.571 92.2265 250.168 88.6747 251.483 84.6116Z" fill="#002859"/>
<path d="M274.31 96.9563C274.969 96.1481 276.055 95.9965 276.885 96.6734C277.716 97.3513 277.808 98.4637 277.149 99.2718C276.472 100.103 275.364 100.237 274.534 99.5601C273.702 98.8822 273.633 97.7868 274.31 96.9563Z" fill="#002859"/>
<path d="M309.964 116.057L311.715 118.164L291.612 126.632L290.012 124.71L299.241 110.103L283.197 116.514L281.599 114.592L293.591 96.3711L295.361 98.4988L285.709 112.877L301.913 106.333L303.475 108.21L294.131 122.912L309.964 116.057Z" fill="#002859"/>
<path d="M302.301 144.709L306.397 135.469L304.366 131.729L297.326 135.55L296.061 133.222L314.378 123.273L318.216 130.339C320.333 134.237 319.576 137.834 315.991 139.781C313.06 141.373 310.048 140.569 307.936 137.989L303.849 147.563L302.301 144.709ZM313.498 126.768L306.432 130.605L308.906 135.159C310.341 137.802 312.379 138.558 314.656 137.322C316.984 136.056 317.392 133.937 315.97 131.321L313.498 126.768Z" fill="#002859"/>
<path d="M324.739 144.302L305.467 152.244L304.447 149.767L323.717 141.824L324.739 144.302Z" fill="#002859"/>
<path d="M331.093 163.608L328.725 164.319L326.792 157.873L309.196 163.153L308.435 160.615L326.031 155.337L324.097 148.891L326.463 148.18L331.093 163.608Z" fill="#002859"/>
<path d="M331.757 182.762L330.059 171.485L323.493 172.475L325.014 182.573L322.629 182.932L321.108 172.834L314.278 173.863L315.976 185.138L313.562 185.502L311.465 171.576L332.074 168.473L334.172 182.398L331.757 182.762Z" fill="#002859"/>
<path d="M333.918 211.989L321.546 211.292C315.807 210.969 313.032 207.232 313.302 202.443C313.572 197.655 316.75 194.225 322.49 194.548L334.862 195.246L334.709 197.952L322.486 197.263C318.144 197.018 315.987 199.283 315.801 202.584C315.617 205.856 317.504 208.379 321.846 208.624L334.068 209.313L333.918 211.989Z" fill="#002859"/>
<path d="M318.932 214.004L319.085 216.658C316.035 216.664 313.833 218.378 313.134 221.579C312.475 224.605 313.242 226.816 315.163 227.234C316.822 227.596 318.119 226.538 319.71 223.44L320.985 220.944C322.671 217.684 324.933 216.259 327.668 216.855C330.986 217.578 332.678 220.995 331.753 225.243C330.851 229.375 328.157 231.807 324.087 231.742L324.002 229.192C327.045 229.216 328.747 227.423 329.325 224.775C329.908 222.098 329.108 220.034 327.275 219.634C325.472 219.24 324.378 220.344 323.168 222.671L321.899 225.137C319.9 228.998 317.518 230.552 314.812 229.963C311.349 229.207 309.698 225.736 310.72 221.052C311.722 216.455 314.662 214.018 318.932 214.004Z" fill="#002859"/>
<path d="M314.278 239.54C315.249 239.917 315.729 240.902 315.342 241.901C314.955 242.901 313.925 243.332 312.953 242.955C311.954 242.568 311.483 241.555 311.871 240.555C312.259 239.556 313.278 239.152 314.278 239.54Z" fill="#002859"/>
<path d="M307.086 279.359L305.621 281.674L291.374 265.143L292.713 263.029L309.455 267.321L298.417 254.02L299.755 251.906L320.79 257.717L319.308 260.057L302.654 255.293L313.869 268.704L312.561 270.768L295.692 266.396L307.086 279.359Z" fill="#002859"/>
<path d="M277.452 280.888L287.505 281.942L290.439 278.856L284.636 273.335L286.462 271.414L301.566 285.782L296.023 291.608C292.965 294.824 289.309 295.21 286.353 292.398C283.937 290.099 283.775 286.986 285.579 284.18L275.214 283.24L277.452 280.888ZM297.971 286.021L292.145 280.479L288.573 284.233C286.501 286.412 286.407 288.584 288.284 290.37C290.204 292.196 292.347 291.934 294.399 289.775L297.971 286.021Z" fill="#002859"/>
<path d="M284.776 302.095L271.275 286.212L273.316 284.477L286.819 300.359L284.776 302.095Z" fill="#002859"/>
<path d="M268.38 314.123L266.972 312.092L272.503 308.257L262.032 293.155L264.21 291.645L274.68 306.746L280.212 302.912L281.62 304.942L268.38 314.123Z" fill="#002859"/>
<path d="M250.418 320.683L260.608 315.565L257.627 309.629L248.502 314.214L247.419 312.059L256.545 307.476L253.445 301.302L243.254 306.422L242.158 304.24L254.743 297.918L264.099 316.542L251.514 322.865L250.418 320.683Z" fill="#002859"/>
<path d="M223.225 331.764L220.089 319.776C218.635 314.215 221.34 310.428 225.978 309.215C230.618 308.002 234.858 309.971 236.313 315.532L239.448 327.52L236.826 328.205L233.729 316.363C232.628 312.156 229.811 310.8 226.611 311.636C223.442 312.465 221.62 315.035 222.721 319.242L225.817 331.085L223.225 331.764Z" fill="#002859"/>
<path d="M216.669 318.131L214.188 319.091C213.247 316.189 210.94 314.618 207.679 314.936C204.596 315.236 202.729 316.644 202.919 318.601C203.083 320.29 204.487 321.202 207.923 321.765L210.691 322.215C214.311 322.819 216.363 324.536 216.634 327.322C216.963 330.702 214.23 333.362 209.902 333.783C205.691 334.193 202.55 332.373 201.363 328.478L203.765 327.616C204.676 330.52 206.905 331.591 209.603 331.33C212.33 331.064 214.049 329.668 213.867 327.8C213.688 325.962 212.304 325.259 209.718 324.823L206.98 324.371C202.69 323.651 200.48 321.86 200.213 319.103C199.87 315.576 202.667 312.941 207.44 312.476C212.124 312.022 215.346 314.071 216.669 318.131Z" fill="#002859"/>
<path d="M190.984 321.555C190.927 322.596 190.14 323.358 189.069 323.3C187.999 323.241 187.268 322.395 187.326 321.354C187.384 320.284 188.201 319.524 189.272 319.581C190.343 319.641 191.043 320.484 190.984 321.555Z" fill="#002859"/>
<path d="M150.874 327.058L148.219 326.382L159.518 307.715L161.942 308.332L163.053 325.58L172.275 310.962L174.7 311.582L175.696 333.379L173.012 332.695L172.379 315.384L163.104 330.204L160.738 329.6L159.664 312.208L150.874 327.058Z" fill="#002859"/>
<path d="M140.26 299.341L142.356 309.232L146.197 311.075L149.661 303.85L152.051 304.995L143.036 323.796L135.783 320.319C131.782 318.4 130.288 315.04 132.052 311.36C133.495 308.352 136.407 307.239 139.632 308.091L137.333 297.938L140.26 299.341ZM141.701 320.447L145.18 313.196L140.505 310.954C137.792 309.654 135.697 310.235 134.576 312.571C133.43 314.962 134.342 316.918 137.028 318.206L141.701 320.447Z" fill="#002859"/>
<path d="M122.343 312.844L133.301 295.109L135.581 296.517L124.624 314.254L122.343 312.844Z" fill="#002859"/>
<path d="M105.862 300.941L107.362 298.975L112.712 303.059L123.859 288.449L125.966 290.058L114.82 304.666L120.17 308.75L118.67 310.714L105.862 300.941Z" fill="#002859"/>
<path d="M94.0794 285.864L102.09 293.985L106.819 289.318L99.6425 282.048L101.361 280.354L108.536 287.625L113.455 282.772L105.443 274.653L107.181 272.938L117.076 282.965L102.236 297.607L92.3403 287.579L94.0794 285.864Z" fill="#002859"/>
<path d="M75.166 263.491L85.5823 256.79C90.4152 253.681 94.852 255.075 97.4451 259.106C100.038 263.138 99.4831 267.778 94.6513 270.887L84.235 277.588L82.7692 275.31L93.0595 268.689C96.7159 266.337 97.1302 263.239 95.342 260.46C93.5698 257.706 90.5625 256.773 86.9071 259.125L76.6158 265.745L75.166 263.491Z" fill="#002859"/>
<path d="M86.0754 253.012L84.394 250.953C86.8601 249.159 87.6362 246.478 86.3231 243.477C85.0815 240.64 83.1631 239.302 81.3621 240.09C79.8077 240.77 79.3786 242.388 79.9092 245.829L80.3405 248.599C80.8892 252.226 79.8953 254.709 77.331 255.831C74.2201 257.194 70.8444 255.42 69.1011 251.437C67.4058 247.563 68.1606 244.015 71.4935 241.679L73.0575 243.692C70.5808 245.459 70.2552 247.91 71.3409 250.392C72.4405 252.902 74.2991 254.103 76.0168 253.351C77.7089 252.61 77.947 251.076 77.5594 248.483L77.1399 245.742C76.4929 241.44 77.5093 238.785 80.0458 237.675C83.2923 236.254 86.6647 238.094 88.5874 242.487C90.4738 246.796 89.5247 250.495 86.0754 253.012Z" fill="#002859"/>
<path d="M74.8641 229.62C73.8563 229.886 72.8891 229.371 72.6158 228.335C72.3425 227.298 72.9233 226.344 73.931 226.078C74.9676 225.805 75.9423 226.35 76.2156 227.387C76.4889 228.423 75.9007 229.347 74.8641 229.62Z" fill="#002859"/>
<path d="M57.3111 193.177L57.1382 190.441L78.3753 195.455L78.5333 197.952L62.4621 204.31L79.2069 208.593L79.3649 211.091L58.9285 218.739L58.7534 215.975L75.0306 210.052L58.0787 205.781L57.9239 203.344L74.1445 196.976L57.3111 193.177Z" fill="#002859"/>
<path d="M80.3651 174.547L71.6174 179.609L71.058 183.831L79.0007 184.88L78.6538 187.507L57.9878 184.777L59.0415 176.805C59.6233 172.407 62.352 169.944 66.3949 170.479C69.7022 170.915 71.6655 173.338 71.8566 176.666L80.791 171.329L80.3651 174.547ZM60.756 182.47L68.7275 183.523L69.4065 178.386C69.8004 175.404 68.5973 173.593 66.0287 173.253C63.4014 172.906 61.8246 174.379 61.435 177.331L60.756 182.47Z" fill="#002859"/>
<path d="M61.9709 161.676L82.229 166.591L81.5981 169.196L61.3389 164.281L61.9709 161.676Z" fill="#002859"/>
<path d="M68.1792 142.316L70.5118 143.136L68.2849 149.488L85.6307 155.57L84.7521 158.072L67.4084 151.991L65.1804 158.343L62.8467 157.525L68.1792 142.316Z" fill="#002859"/>
<path d="M78.9178 126.433L73.6601 136.552L79.552 139.612L84.2599 130.551L86.4004 131.663L81.6914 140.723L87.8203 143.908L93.078 133.791L95.2441 134.917L88.7512 147.412L70.2588 137.803L76.7517 125.309L78.9178 126.433Z" fill="#002859"/>
<path d="M94.393 101.531L103.977 109.386C108.422 113.03 108.459 117.682 105.419 121.391C102.379 125.099 97.791 125.998 93.3457 122.354L83.7632 114.499L85.482 112.403L94.9481 120.164C98.3109 122.921 101.389 122.362 103.484 119.805C105.562 117.271 105.523 114.121 102.161 111.365L92.6934 103.604L94.393 101.531Z" fill="#002859"/>
<path d="M107.714 108.711L109.154 106.478C111.621 108.269 114.411 108.182 116.86 106.006C119.175 103.95 119.859 101.71 118.553 100.241C117.426 98.9718 115.753 99.0636 112.644 100.63L110.143 101.896C106.861 103.537 104.193 103.356 102.335 101.264C100.08 98.7252 100.724 94.9663 103.974 92.0796C107.137 89.2719 110.745 88.8951 113.996 91.3451L112.564 93.4525C110.119 91.6409 107.687 92.0892 105.661 93.8881C103.614 95.7072 103.042 97.8466 104.288 99.2494C105.514 100.63 107.049 100.383 109.395 99.2142L111.873 97.9694C115.765 96.0275 118.604 96.1727 120.444 98.2438C122.797 100.893 122.088 104.671 118.503 107.854C114.984 110.978 111.173 111.216 107.714 108.711Z" fill="#002859"/>
<path d="M126.486 90.8243C125.921 89.9478 126.112 88.8707 127.013 88.2888C127.914 87.7081 128.999 87.9632 129.564 88.8397C130.146 89.7397 129.929 90.835 129.028 91.4157C128.128 91.9976 127.067 91.7253 126.486 90.8243Z" fill="#002859"/>
</svg>
